<svg enable-background="new 544.283 254.271 234.283 234.339" height="234.339" viewBox="544.283 254.271 234.283 234.339" width="234.283" xmlns="http://www.w3.org/2000/svg" xmlns:xlink="http://www.w3.org/1999/xlink"><filter id="a" color-interpolation-filters="sRGB"><feGaussianBlur stdDeviation="3.5139147"/></filter><radialGradient id="b" cx="368.1363" cy="1017.0931" gradientTransform="matrix(.016 -.6752 -1 -.0236 1607.9792 1233.2194)" gradientUnits="userSpaceOnUse" r="117.6222"><stop offset="0" stop-color="#2ad4ff"/><stop offset="1" stop-color="#00aad4"/></radialGradient><linearGradient id="c" gradientTransform="matrix(1 0 0 -1 376.2881 1700.7078)" gradientUnits="userSpaceOnUse" x1="217.0044" x2="216.4032" y1="922.6898" y2="791.3206"><stop offset="0" stop-color="#d5f6ff"/><stop offset="1" stop-color="#2ad4ff"/></linearGradient><linearGradient id="d" gradientTransform="matrix(1 0 0 -1 376.2881 1700.7078)" gradientUnits="userSpaceOnUse" x1="214.8282" x2="215.3413" y1="919.432" y2="879.4058"><stop offset="0" stop-color="#d5f6ff"/><stop offset="1" stop-color="#aef"/></linearGradient><linearGradient id="e"><stop offset="0" stop-color="#fff"/><stop offset="1" stop-color="#fff" stop-opacity="0"/></linearGradient><linearGradient id="f" gradientTransform="matrix(1 0 0 -1 376.2881 1700.7078)" gradientUnits="userSpaceOnUse" x1="180.4746" x2="180.6158" xlink:href="#e" y1="922.8021" y2="912.073"/><linearGradient id="g" gradientTransform="matrix(1 0 0 -1 376.2881 1700.7078)" gradientUnits="userSpaceOnUse" x1="232.8037" x2="232.8037" xlink:href="#e" y1="883.7875" y2="879.1689"/><g transform="translate(69.849081 -474.58577)"><g filter="url(#a)"><path d="m513.332 730.07h155.256c21.484 0 38.898 17.416 38.898 38.899v155.328c0 21.482-17.414 38.898-38.898 38.898h-155.256c-21.482 0-38.898-17.416-38.898-38.898v-155.328c0-21.483 17.416-38.899 38.898-38.899z" fill="#666"/></g><path d="m513.57 728.856h156.035c21.592 0 39.096 17.503 39.096 39.095v156.108c0 21.592-17.504 39.094-39.096 39.094h-156.035c-21.592 0-39.094-17.502-39.094-39.094v-156.108c.001-21.591 17.503-39.095 39.094-39.095z" fill="url(#b)"/><path d="m513.561 728.868c-21.658 0-39.094 17.436-39.094 39.094v37.875c31.832 11.389 72.645 18.219 117.125 18.219 44.479 0 85.291-6.83 117.125-18.219v-37.875c0-21.658-17.467-39.094-39.125-39.094z" fill="#2ad4ff" opacity=".4873"/><path d="m557.686 757.243c-19.117 0-34.531 15.384-34.531 34.5v79.943c-1.133 51.395 44.422 60.695 65.281 60.9h37.781c19.377 0 34.969-15.621 34.969-35 0-16.089-10.76-29.573-25.5-33.688 15.496-3.88 26.906-17.86 26.906-34.593 0-19.753-15.904-35.656-35.656-35.656h-30.781c-1.342 0-2.668.076-3.969.219v-2.125c0-19.116-15.385-34.5-34.5-34.5z" fill="#fff"/><path d="m557.686 773.431c-10.113 0-18.25 8.496-18.25 19.063v76.531c.506 29.273 10.893 47.205 45.219 47.063h43.781c9.818 0 17.719-7.9 17.719-17.719s-7.9-17.719-17.719-17.719h-52.5v-32.688h53.531c9.625 0 17.375-7.749 17.375-17.375s-7.75-17.375-17.375-17.375h-53.531v-20.719c0-10.567-8.137-19.062-18.25-19.062z" fill="url(#c)"/><path d="m516.779 735.774c-19.609 0-35.375 15.797-35.375 35.406v149.656c0 19.609 15.766 35.406 35.375 35.406h149.594c19.607 0 35.406-15.797 35.406-35.406v-149.655c0-19.609-15.799-35.406-35.406-35.406h-149.594zm4.719 6.938h140.188c18.377 0 33.188 14.779 33.188 33.156v140.281c0 18.377-14.811 33.156-33.188 33.156h-140.188c-18.379 0-33.187-14.779-33.187-33.156v-140.281c0-18.377 14.808-33.156 33.187-33.156z" fill="#aef"/><path d="m557.686 773.431c-10.113 0-18.25 8.496-18.25 19.063v28.313c16.535 2.114 34.041 3.25 52.156 3.25 18.137 0 35.664-1.131 52.219-3.25-3.123-4.58-8.359-7.594-14.344-7.594h-53.531v-20.719c0-10.568-8.137-19.063-18.25-19.063z" fill="url(#d)"/><path d="m556.998 778.431c-7.834 0-14.125 6.292-14.125 14.125v9.094h28.281v-9.094c0-7.833-6.324-14.125-14.156-14.125z" fill="url(#f)"/><path d="m595.123 816.524c-3.781 0-7.146 1.683-9.406 4.344h46.75c-2.26-2.663-5.625-4.344-9.406-4.344z" fill="url(#g)" opacity=".6"/></g></svg>