<svg enable-background="new 0 0 256 256" height="256" viewBox="0 0 256 256" width="256" xmlns="http://www.w3.org/2000/svg" xmlns:xlink="http://www.w3.org/1999/xlink"><linearGradient id="a" gradientUnits="userSpaceOnUse" x1="127.2793" x2="127.2793" y1="229.1611" y2="127.2402"><stop offset="0" stop-color="#932420"/><stop offset="1" stop-color="#cb322c"/></linearGradient><linearGradient id="b" gradientTransform="matrix(1 0 0 -1 25.5 -353)" gradientUnits="userSpaceOnUse" x1="103.5" x2="103.5" y1="-491.001" y2="-598.5119"><stop offset="0" stop-opacity=".15"/><stop offset=".6626" stop-opacity="0"/></linearGradient><linearGradient id="c" gradientTransform="matrix(1 0 0 -1 25.5 -353)" gradientUnits="userSpaceOnUse" x1="103.4995" x2="103.4995" y1="-364.167" y2="-491.7951"><stop offset="0" stop-color="#fff" stop-opacity=".85"/><stop offset=".66" stop-color="#fff" stop-opacity="0"/></linearGradient><path d="m210.018 10.505h-164.035c-19.599 0-35.487 15.888-35.487 35.487v164.015c0 19.599 15.888 35.486 35.487 35.486h164.033c19.604 0 35.487-15.888 37.487-34.819v-164.014c-1.999-20.266-17.888-36.155-37.485-36.155z" fill="#e6e6e6"/><g enable-background="new"><path d="m59.637 35.419h15.304l1.97 7.879 1.667 5.818 1.364 5.697 1.364 5.939 1.061 4.97h.606l1.061-4.97 1.212-5.939 1.515-5.697 1.515-5.818 2.121-7.879h14.849l-15.758 47.274v33.577h-14.091v-33.577z"/><path d="m124.184 55.298c11.97 0 18.031 5.697 18.031 16.97v27.88c0 11.273-6.061 16.97-18.031 16.97s-18.031-5.697-18.031-16.97v-27.88c0-11.272 6.06-16.97 18.031-16.97zm0 9.698c-3.182 0-4.849 1.939-4.849 5.576v31.271c0 3.515 1.818 5.576 4.849 5.576s4.849-2.061 4.849-5.576v-31.271c-.001-3.637-1.819-5.576-4.849-5.576z"/><path d="m179.791 116.27-1.061-5.212c-5.455 4.485-8.642 6.061-12.426 6.061-3.186 0-6.519-1.455-8.029-3.394-1.668-2.061-2.121-4.243-2.121-10.425v-47.274h13.182v46.911c0 3.03 1.061 4.485 3.484 4.485 1.668 0 3.183-.606 5.91-2.424v-48.972h13.183v60.244z"/></g><path d="m60.741 127.24h133.075c19.6 0 35.488 15.896 35.488 35.496v30.938c0 19.604-15.894 35.487-35.488 35.487h-133.075c-19.599 0-35.487-15.894-35.487-35.487v-30.938c0-19.6 15.888-35.496 35.487-35.496z" fill="url(#a)"/><g enable-background="new" fill="#fff"><path d="m56.337 150.482h-11.983v-9.588h37.328v9.588h-12.535v63.914h-12.81z"/><path d="m105.372 214.396-.964-4.737c-4.958 4.077-7.851 5.51-11.294 5.51-2.893 0-5.923-1.321-7.3-3.086-1.515-1.873-1.929-3.856-1.929-9.478v-42.979h11.984v42.646c0 2.756.964 4.078 3.168 4.078 1.515 0 2.893-.553 5.372-2.203v-44.521h11.984v54.771h-11.021z"/><path d="m129.34 140.895h11.983v23.914c4.683-4.188 7.851-5.841 11.433-5.841 2.756 0 5.785 1.322 7.162 3.085 1.516 1.983 1.93 3.969 1.93 9.809v30.414c0 5.73-.414 7.719-1.93 9.697-1.377 1.875-4.406 3.196-7.3 3.196-3.582 0-6.612-1.653-11.295-5.951v5.181h-11.983zm17.355 65.459c2.203 0 3.168-1.318 3.168-4.078v-30.416c0-2.86-.965-4.072-3.168-4.072-1.516 0-2.896.551-5.372 2.199v34.162c2.48 1.653 3.857 2.205 5.372 2.205z"/><path d="m207.163 195.223v1.983c.138 1.433.138 2.425.138 2.976 0 9.697-5.923 14.987-16.805 14.987-10.33 0-16.115-5.51-16.115-15.428v-25.456c0-10.358 5.51-15.317 16.666-15.317 9.918 0 16.116 5.179 16.116 13.664v16.089h-20.8v12.012c0 3.973 1.24 5.621 4.408 5.621 1.516 0 2.893-.662 3.58-1.648.688-.992.828-2.204.828-6.171 0-.992 0-1.769 0-3.312zm-11.983-14.216v-9.257c0-2.534-1.652-3.967-4.408-3.967-2.754 0-4.402 1.433-4.402 3.967v9.257z"/></g><path d="m10.496 115.401v94.605c0 19.6 15.888 35.486 35.487 35.486h164.033c19.604 0 35.488-15.889 37.488-34.819v-95.952c-36.779 15.181-77.074 23.576-119.337 23.576-41.625.001-81.342-8.145-117.671-22.896z" fill="url(#b)"/><path d="m210.018 10.505h-164.035c-19.599 0-35.487 15.889-35.487 35.487v69.409c36.33 14.751 76.046 22.896 117.671 22.896 42.263 0 82.558-8.395 119.336-23.576v-68.061c-1.999-20.266-17.888-36.155-37.485-36.155z" fill="url(#c)"/><g fill="none" stroke-miterlimit="10" stroke-width="2"><path d="m247.503 114.721v-68.061c-1.999-20.266-17.888-36.155-37.485-36.155h-164.036c-19.599 0-35.486 15.889-35.486 35.487v69.409" stroke="#e6e6e6"/><path d="m10.496 115.401v94.605c0 19.6 15.888 35.486 35.486 35.486h164.034c19.604 0 35.487-15.889 37.487-34.819v-95.952" stroke="#b8b8b8"/></g></svg>