<svg height="276.3" viewBox="0 0 276.3 276.3" width="276.3" xmlns="http://www.w3.org/2000/svg"><path d="m278.8 353.6q34.8 0 67.9 17.9 33.1 17.8 51.6 51.1 18.5 33.1 18.5 69.2 0 35.7-18.3 68.7-18.1 33-51.1 51.3-32.8 18.1-68.7 18.1-35.9 0-68.8-18.1-32.8-18.3-51.1-51.3-18.3-33-18.3-68.7 0-36.1 18.5-69.2 18.7-33.3 51.8-51.1 33.1-17.9 67.9-17.9zm0 22.9q-29.1 0-56.8 15-27.5 14.8-43 42.7-15.6 27.6-15.6 57.7 0 29.8 15.2 57.3 15.4 27.3 42.8 42.7 27.5 15.2 57.3 15.2 29.8 0 57.3-15.2 27.5-15.4 42.7-42.7 15.2-27.5 15.2-57.3 0-30-15.6-57.7-15.4-27.8-43-42.7-27.6-15-56.6-15zm44.3 137.7 22.5 6.6q-5.5 22.9-23.4 36.6-17.8 13.5-43.2 13.5-32.2 0-52.4-20.9-20.1-20.9-20.1-57.9 0-24.2 9.2-41.9 9.2-17.9 26-26.9 17-9.2 38.8-9.2 24.4 0 40.5 11.7 16.1 11.5 22 31.5l-21.8 5.3q-5.5-13.5-16.3-20.7-10.6-7.3-25.1-7.3-21.1 0-34.8 15-13.5 15-13.5 43 0 28 12.8 42.5 13 14.3 33.5 14.3 16.5 0 28.9-9.5 12.5-9.5 16.5-25.8z" transform="matrix(-1 0 0 1 416.9 -353.6)"/></svg>