<?xml version="1.0" encoding="UTF-8" standalone="no"?>
<svg
   xmlns:dc="http://purl.org/dc/elements/1.1/"
   xmlns:cc="http://creativecommons.org/ns#"
   xmlns:rdf="http://www.w3.org/1999/02/22-rdf-syntax-ns#"
   xmlns:svg="http://www.w3.org/2000/svg"
   xmlns="http://www.w3.org/2000/svg"
   id="svg5982"
   version="1.1"
   viewBox="0 0 83.47699 41.798141"
   height="41.798141mm"
   width="83.47699mm">
  <defs
     id="defs5976">
    <clipPath
       id="clip13">
      <rect
         id="rect109"
         height="60"
         width="56"
         y="0"
         x="0" />
    </clipPath>
    <clipPath
       id="clip14">
      <path
         id="path106"
         d="M 0.628906,0.882812 H 55.59375 V 59.941406 H 0.628906 Z m 0,0" />
    </clipPath>
    <mask
       id="mask6">
      <g
         transform="scale(0.26458333)"
         id="g103"
         style="filter:url(#alpha)">
        <rect
           id="rect101"
           style="fill:#000000;fill-opacity:0.5;stroke:none"
           height="500"
           width="500"
           y="0"
           x="0" />
      </g>
    </mask>
    <filter
       height="1"
       width="1"
       y="0"
       x="0"
       filterUnits="objectBoundingBox"
       id="alpha">
      <feColorMatrix
         id="feColorMatrix2"
         values="0 0 0 0 1 0 0 0 0 1 0 0 0 0 1 0 0 0 1 0"
         in="SourceGraphic"
         type="matrix" />
    </filter>
    <clipPath
       id="clipPath5870">
      <rect
         id="rect5868"
         height="60"
         width="56"
         y="0"
         x="0" />
    </clipPath>
    <clipPath
       id="clipPath5874">
      <path
         id="path5872"
         d="M 0.628906,0.882812 H 55.59375 V 59.941406 H 0.628906 Z m 0,0" />
    </clipPath>
    <clipPath
       id="clip11">
      <rect
         id="rect93"
         height="78"
         width="214"
         y="0"
         x="0" />
    </clipPath>
    <clipPath
       id="clip12">
      <path
         id="path90"
         d="M 0.800781,0.359375 H 213.70312 V 77.738281 H 0.800781 Z m 0,0" />
    </clipPath>
    <mask
       id="mask5">
      <g
         transform="scale(0.26458333)"
         id="g87"
         style="filter:url(#alpha)">
        <rect
           id="rect85"
           style="fill:#000000;fill-opacity:0.80000299;stroke:none"
           height="500"
           width="500"
           y="0"
           x="0" />
      </g>
    </mask>
    <filter
       height="1"
       width="1"
       y="0"
       x="0"
       filterUnits="objectBoundingBox"
       id="filter5885">
      <feColorMatrix
         id="feColorMatrix5883"
         values="0 0 0 0 1 0 0 0 0 1 0 0 0 0 1 0 0 0 1 0"
         in="SourceGraphic"
         type="matrix" />
    </filter>
    <clipPath
       id="clipPath5889">
      <rect
         id="rect5887"
         height="78"
         width="214"
         y="0"
         x="0" />
    </clipPath>
    <clipPath
       id="clipPath5893">
      <path
         id="path5891"
         d="M 0.800781,0.359375 H 213.70312 V 77.738281 H 0.800781 Z m 0,0" />
    </clipPath>
  </defs>
  <metadata
     id="metadata5979">
    <rdf:RDF>
      <cc:Work
         rdf:about="">
        <dc:format>image/svg+xml</dc:format>
        <dc:type
           rdf:resource="http://purl.org/dc/dcmitype/StillImage" />
        <dc:title></dc:title>
      </cc:Work>
    </rdf:RDF>
  </metadata>
  <g
     transform="translate(-29.829423,-115.11182)"
     id="layer1">
    <path
       id="path616"
       d="m 97.836549,155.36936 13.931971,-2.29581 -4.22231,-1.28571 -13.132705,1.79145 z m 0,0"
       style="fill:#919191;fill-opacity:1;fill-rule:nonzero;stroke:none;stroke-width:0.35277778" />
    <path
       id="path618"
       d="m 89.587613,152.22881 14.010517,-1.7446 -4.167191,-1.44969 -13.193337,1.27055 z m 0,0"
       style="fill:#919191;fill-opacity:1;fill-rule:nonzero;stroke:none;stroke-width:0.35277778" />
    <path
       id="path620"
       d="m 113.30641,152.23984 c -0.52779,-0.17088 -1.29949,-0.42169 -2.28341,-0.74001 -1.96784,-0.63803 -4.78179,-1.55029 -8.15661,-2.64308 -3.377574,-1.08865 -7.316005,-2.3592 -11.538316,-3.71933 -2.111153,-0.67799 -4.292589,-1.37665 -6.509851,-2.0891 -2.220021,-0.70418 -4.474493,-1.41938 -6.72896,-2.13458 -4.51032,-1.42627 -9.020638,-2.85254 -13.249838,-4.19062 -2.115291,-0.66559 -4.156163,-1.32016 -6.099199,-1.91823 -1.941653,-0.6022 -3.77858,-1.17133 -5.472189,-1.69636 -3.391352,-1.04731 -6.210819,-1.93477 -8.192437,-2.53283 -1.980242,-0.60359 -3.111611,-0.94809 -3.111611,-0.94809 l -0.170877,0.52365 c 0,0 1.117589,0.38723 3.073026,1.06522 1.954058,0.68489 4.75561,1.62884 8.112511,2.77813 1.679828,0.57326 3.49746,1.19476 5.422582,1.85208 1.922359,0.66146 3.956346,1.33532 6.059234,2.04226 4.204393,1.40973 8.689909,2.91317 13.175422,4.41799 2.243447,0.74965 4.486891,1.4993 6.695887,2.23655 2.210376,0.73036 4.386297,1.4497 6.491938,2.14699 4.212664,1.3863 8.144206,2.68028 11.513508,3.7896 3.37206,1.10381 6.18326,2.02296 8.14972,2.6665 0.98392,0.32247 1.75562,0.57465 2.28203,0.74828 0.226,0.073 0.40514,0.13091 0.53744,0.17501 z m 0,0"
       style="fill:#919191;fill-opacity:1;fill-rule:nonzero;stroke:none;stroke-width:0.35277778" />
    <path
       id="path622"
       d="m 99.703793,155.03036 c -0.509873,-0.20808 -1.226455,-0.50023 -2.127692,-0.86816 -1.916851,-0.78135 -4.653637,-1.89756 -7.940254,-3.23701 -3.288004,-1.33395 -7.123084,-2.88975 -11.232394,-4.55717 -2.056032,-0.83096 -4.179588,-1.68948 -6.338974,-2.56316 -2.160765,-0.8654 -4.357357,-1.74459 -6.552571,-2.62516 -4.393186,-1.75424 -8.787751,-3.50849 -12.906707,-5.15386 -2.060168,-0.81994 -4.047299,-1.62333 -5.940723,-2.36058 -1.892047,-0.74414 -3.682119,-1.44694 -5.333009,-2.096 -3.303157,-1.29398 -6.050965,-2.38676 -7.984353,-3.12952 -1.930631,-0.7469 -2.286165,-0.8847 -2.286165,-0.8847 l -0.720715,0.0909 c 0,0 69.231265,29.21027 69.363557,29.26402 z m 0,0"
       style="fill:#919191;fill-opacity:1;fill-rule:nonzero;stroke:none;stroke-width:0.35277778" />
    <g
       id="use624"
       clip-path="url(#clip11)"
       transform="matrix(0.09333912,0,0,0.09333912,29.75457,127.50405)">
      <g
         clip-path="url(#clip12)"
         id="g6753"
         style="clip-rule:nonzero">
        <path
           style="fill:#636363;fill-opacity:1;fill-rule:nonzero;stroke:none"
           d="m 1.980469,0.359375 c 0,0 -0.660157,0.054687 -0.820313,0.089844 C 1.003906,0.488281 0.320312,0.453125 1.394531,1 2.464844,1.546875 115.89844,66.34375 135.48047,73.914062 155.06641,81.480469 227.25781,78 211.46094,61.890625 174.48047,46.90625 1.980469,0.359375 1.980469,0.359375"
           id="path6751" />
      </g>
    </g>
    <path
       id="path626"
       d="m 73.99373,120.89498 -3.396861,0.452 -0.501607,-4.50068 c -3.1061,1.17134 -39.581393,8.95863 -39.581393,8.95863 -0.311436,0.0882 -0.22462,0.93569 -0.230132,1.25677 l 52.444003,8.64857 z m 0,0"
       style="fill:#e3e3e3;fill-opacity:1;fill-rule:nonzero;stroke:none;stroke-width:0.35277778" />
    <path
       id="path628"
       d="m 73.99373,120.89498 -3.396861,0.452 -0.413414,-3.71106 c -4.278807,1.36701 -39.763292,8.23378 -39.768804,8.23515 -0.191548,0.22462 -0.12678,0.90813 -0.130914,1.19063 l 52.444003,8.64857 z m 0,0"
       style="fill:#cccabd;fill-opacity:1;fill-rule:nonzero;stroke:none;stroke-width:0.35277778" />
    <path
       id="path630"
       d="m 32.919924,127.29872 c 0.0055,-0.32108 0.02343,-0.6463 0.05926,-0.94671 -0.03583,0.30041 -0.05374,0.62563 -0.05926,0.94671"
       style="fill:#7d6b4a;fill-opacity:1;fill-rule:nonzero;stroke:none;stroke-width:0.35277778" />
    <path
       id="path632"
       d="m 30.280981,126.86188 c 0,0.40514 0.05099,0.72761 0.172255,0.76895 1.869998,0.62976 40.11056,16.69907 42.774309,17.31643 L 72.00109,133.94224 Z m 0,0"
       style="fill:#7d6b4a;fill-opacity:1;fill-rule:nonzero;stroke:none;stroke-width:0.35277778" />
    <path
       id="path634"
       d="M 109.93297,136.65973 C 108.09053,127.9905 94.8655,117.57804 94.8655,117.57804 l -21.356838,-1.60955 c 0,0 -0.603578,0.1006 -0.792372,0.17225 -1.570963,0.59532 -4.863097,3.46302 -4.863097,3.46302 0,0 -1.63022,3.70692 -1.63022,9.66418 0,5.7602 0.734497,10.31737 0.734497,10.31737 0.85576,0.40376 4.169942,1.96646 7.0652,3.37482 2.844271,1.52273 9.687608,5.45978 15.490529,7.20025 3.819925,1.14652 15.121211,1.36839 16.457911,-1.43592 3.85713,-8.09322 4.02939,-11.7464 3.96186,-12.06473"
       style="fill:#ffcc3a;fill-opacity:1;fill-rule:nonzero;stroke:none;stroke-width:0.35277778" />
    <path
       id="path636"
       d="M 109.93297,136.65973 C 108.09053,127.9905 94.8655,117.57804 94.8655,117.57804 l -21.356838,-1.60955 c 0,0 -0.596689,0.11989 -0.792372,0.17225 -2.683039,0.71658 -3.96186,0.90951 -4.863097,2.0395 -1.354611,1.69912 -1.63022,5.13044 -1.63022,11.0877 0,5.7602 0.734497,10.31737 0.734497,10.31737 0.418923,2.81258 4.139628,4.32015 7.03626,5.72988 3.959106,1.59026 9.399598,3.39687 15.519469,4.84519 3.81303,0.90261 15.121211,1.36839 16.457911,-1.43592 3.85713,-8.09322 4.02939,-11.7464 3.96186,-12.06473"
       style="fill:#ffcc3a;fill-opacity:1;fill-rule:nonzero;stroke:none;stroke-width:0.35277778" />
    <path
       id="path638"
       d="m 109.93297,136.65973 c -0.14332,-0.67523 -0.35691,-1.36288 -0.62701,-2.05465 -1.0225,0.98392 -2.12631,1.84657 -3.2315,2.58382 -2.21312,1.20716 -4.57233,2.26963 -6.435435,3.93568 -11.097344,0.36518 -22.559864,-0.60909 -33.129418,-3.66007 0.144695,1.28571 0.1378,2.11666 0.1378,2.11666 0.418926,2.81258 4.449691,4.32429 7.346323,5.73402 3.959106,1.59026 9.399598,3.39687 15.519469,4.84519 3.81303,0.90261 15.121211,1.36839 16.457911,-1.43592 3.85713,-8.09322 4.02939,-11.7464 3.96186,-12.06473"
       style="fill:#7d6b4a;fill-opacity:1;fill-rule:nonzero;stroke:none;stroke-width:0.35277778" />
    <path
       id="path640"
       d="m 109.93159,136.90503 c -2.70784,-9.28936 -16.803799,-19.32699 -16.803799,-19.32699 l -9.734463,-1.54616 v 5.29994 c 3.256307,3.44096 11.652692,11.38259 12.396835,18.97834 0.01929,0.19293 0.133671,-0.19017 -0.421679,2.58244 0,0 -2.863564,-0.20119 -3.595301,0.54019 -1.241613,1.2554 -1.502061,4.23885 -2.589335,6.60494 0.108866,0.0413 0.217729,0.0909 0.329351,0.12265 4.280186,1.23885 15.121211,1.36839 16.457911,-1.43592 3.85713,-8.09184 4.05143,-11.50662 3.96048,-11.81943"
       style="fill:#f8bf35;fill-opacity:1;fill-rule:nonzero;stroke:none;stroke-width:0.35277778" />
    <path
       id="path642"
       d="m 108.1801,131.05939 c -5.13594,-9.74136 -10.663255,-13.79141 -16.338017,-15.02751 -9.549805,-1.93339 -17.294379,-0.26596 -18.872232,0.0317 1.160306,-0.14055 6.148805,0.17364 12.719293,13.94713 2.027092,4.24849 4.412478,9.45059 8.567262,10.68669 3.87918,1.15479 12.372034,1.30224 14.986164,-1.78732 1.35186,-1.59714 0.67938,-4.5489 -1.06247,-7.85068"
       style="fill:#f8bf35;fill-opacity:1;fill-rule:nonzero;stroke:none;stroke-width:0.35277778" />
    <path
       id="path644"
       d="m 108.1801,131.05939 c -5.13594,-9.74136 -10.663255,-13.79141 -16.338017,-15.02751 -9.549805,-1.93339 -17.294379,-0.26596 -18.872232,0.0317 1.160306,-0.14055 6.148805,0.17364 12.719293,13.94713 2.027092,4.24849 4.412478,9.45059 8.567262,10.68669 3.87918,1.15479 12.372034,1.30224 14.986164,-1.78732 1.35186,-1.59714 0.67938,-4.5489 -1.06247,-7.85068"
       style="fill:#f8bf35;fill-opacity:1;fill-rule:nonzero;stroke:none;stroke-width:0.35277778" />
    <path
       id="path646"
       d="m 108.38543,136.56878 c 0.42031,0.64217 0.1819,1.19614 -0.53606,1.23611 l -12.349973,0.70004 c -0.716579,0.04 -1.642621,-0.44787 -2.0643,-1.09003 0,0 -3.771691,-7.31049 -4.982986,-9.76616 -1.98851,-4.03489 -6.250784,-9.62146 -6.250784,-9.62146 -0.421677,-0.64217 -0.181901,-1.19476 0.536057,-1.2361 l 9.296246,0.003 c 1.19338,-0.003 1.810743,0.38171 2.490119,1.05833 0,0 4.901681,4.93889 7.681181,8.72849 2.50114,3.40927 6.1805,9.98803 6.1805,9.98803"
       style="fill:#333333;fill-opacity:1;fill-rule:nonzero;stroke:none;stroke-width:0.35277778" />
    <path
       id="path648"
       d="m 94.523749,117.85227 c -0.679376,-0.67662 -1.296739,-1.06109 -2.490119,-1.05833 l -9.296246,-0.003 c -0.717958,0.0413 -0.957734,0.59393 -0.536057,1.2361 0,0 1.216809,1.59439 2.651345,3.69314 l 13.01006,-0.33349 c -1.823143,-2.0078 -3.338983,-3.53466 -3.338983,-3.53466"
       style="fill:#424242;fill-opacity:1;fill-rule:nonzero;stroke:none;stroke-width:0.35277778" />
    <path
       id="path650"
       d="m 106.84065,133.88437 -14.918639,0.59117 c 0.855763,1.6633 1.513086,2.93936 1.513086,2.93936 0.423058,0.64216 1.347721,1.12999 2.0643,1.09003 l 12.349973,-0.70004 c 0.71796,-0.04 0.95774,-0.59394 0.53606,-1.23611 0,0 -0.62976,-1.12448 -1.54478,-2.68441"
       style="fill:#424242;fill-opacity:1;fill-rule:nonzero;stroke:none;stroke-width:0.35277778" />
    <path
       id="path652"
       d="m 82.737384,117.77097 9.296246,0.003 c 1.19338,-0.003 1.810743,0.38171 2.490119,1.05833 0,0 4.901681,4.94027 7.681181,8.72849 2.50114,3.40927 6.1805,9.9894 6.1805,9.9894 0.01,0.0152 0.0152,0.0289 0.0234,0.0441 0.23978,-0.22462 0.25218,-0.60358 -0.0234,-1.02526 0,0 -3.67936,-6.57875 -6.1805,-9.98802 -2.7795,-3.7896 -7.681181,-8.72849 -7.681181,-8.72849 -0.679376,-0.67662 -1.296739,-1.06109 -2.490119,-1.05833 l -9.296246,-0.003 c -0.700045,0.04 -0.9412,0.56912 -0.559483,1.192 0.125402,-0.11851 0.311436,-0.19706 0.559483,-0.21222"
       style="fill:#5c5c5c;fill-opacity:1;fill-rule:nonzero;stroke:none;stroke-width:0.35277778" />
    <path
       id="path654"
       d="m 93.673497,137.27572 c 0.367937,0.54708 1.185111,0.98392 1.810742,0.9536 l 12.349981,-0.69867 c 0.22738,-0.0138 0.38861,-0.0882 0.45062,-0.21359 0.073,-0.14332 0.0248,-0.36105 -0.13092,-0.59669 -0.0469,-0.0827 -3.70967,-6.6201 -6.17085,-9.977 -2.735408,-3.72897 -7.606774,-8.64856 -7.655005,-8.6968 -0.635275,-0.6339 -1.189249,-0.9784 -2.284785,-0.9784 l -9.305896,-10e-4 c -0.212217,0.0124 -0.373446,0.0882 -0.435462,0.21222 -0.07304,0.14331 -0.02479,0.36104 0.129537,0.59806 0.03168,0.04 4.289836,5.63893 6.268697,9.65041 1.169955,2.37573 4.791437,9.39408 4.973341,9.74824 m 1.741839,1.50619 c -0.804772,0 -1.754243,-0.52227 -2.210374,-1.21543 l -0.01378,-0.0248 c -0.03722,-0.073 -3.78824,-7.34081 -4.985755,-9.77029 -1.954056,-3.96461 -6.180503,-9.52086 -6.223222,-9.57599 -0.276984,-0.42167 -0.336241,-0.83922 -0.172254,-1.16306 0.154339,-0.30868 0.478178,-0.49196 0.912262,-0.51538 l 9.311404,10e-4 c 1.285709,0 1.978864,0.43545 2.68442,1.13825 0.04961,0.051 4.949913,4.99953 7.708743,8.76019 2.48185,3.38584 6.16121,9.9522 6.19842,10.01696 0.25631,0.38861 0.31557,0.80753 0.15158,1.13275 -0.15434,0.30592 -0.47818,0.48921 -0.91226,0.51401 l -12.349978,0.69866 c -0.03306,0.001 -0.06615,0.003 -0.09922,0.003"
       style="fill:#7d6b4a;fill-opacity:1;fill-rule:nonzero;stroke:none;stroke-width:0.35277778" />
    <g
       id="use656"
       clip-path="url(#clip13)"
       transform="matrix(0.09333912,0,0,0.09333912,86.551795,116.92071)">
      <g
         clip-path="url(#clip14)"
         id="g6759"
         style="clip-rule:nonzero">
        <path
           style="fill:#b5b5b5;fill-opacity:1;fill-rule:nonzero;stroke:none"
           d="M 37.496094,28.628906 C 29.621094,17.886719 15.722656,3.886719 15.722656,3.886719 13.796875,1.96875 12.046875,0.878906 8.664062,0.886719 L 0.628906,0.878906 c 3.269532,0.886719 4.832032,2.238282 6.757813,4.15625 0,0 13.898437,14 21.773437,24.742188 7.089844,9.664062 17.519532,28.3125 17.519532,28.3125 0.441406,0.671875 0.625,1.308594 0.582031,1.851562 l 8.109375,-0.457031 c 0.375,-0.648437 0.292968,-1.554687 -0.355469,-2.542969 0,0 -10.429687,-18.648437 -17.519531,-28.3125"
           id="path6757" />
      </g>
    </g>
    <path
       id="path658"
       d="m 93.673497,137.27572 c 0.367937,0.54708 1.185111,0.98392 1.810742,0.9536 l 12.349981,-0.69867 c 0.22738,-0.0138 0.38861,-0.0882 0.45062,-0.21359 0.073,-0.14332 0.0248,-0.36105 -0.13092,-0.59669 -0.0469,-0.0827 -3.70967,-6.6201 -6.17085,-9.977 -2.735408,-3.72897 -7.606774,-8.64856 -7.655005,-8.6968 -0.635275,-0.6339 -1.189249,-0.9784 -2.284785,-0.9784 l -9.305896,-10e-4 c -0.212217,0.0124 -0.373446,0.0882 -0.435462,0.21222 -0.07304,0.14331 -0.02479,0.36104 0.129537,0.59806 0.03168,0.04 4.289836,5.63893 6.268697,9.65041 1.169955,2.37573 4.791437,9.39408 4.973341,9.74824 m 1.741839,1.50619 c -0.804772,0 -1.754243,-0.52227 -2.210374,-1.21543 l -0.01378,-0.0248 c -0.03722,-0.073 -3.78824,-7.34081 -4.985755,-9.77029 -1.954056,-3.96461 -6.180503,-9.52086 -6.223222,-9.57599 -0.276984,-0.42167 -0.336241,-0.83922 -0.172254,-1.16306 0.154339,-0.30868 0.478178,-0.49196 0.912262,-0.51538 l 9.311404,10e-4 c 1.285709,0 1.978864,0.43545 2.68442,1.13825 0.04961,0.051 4.949913,4.99953 7.708743,8.76019 2.48185,3.38584 6.16121,9.9522 6.19842,10.01696 0.25631,0.38861 0.31557,0.80753 0.15158,1.13275 -0.15434,0.30592 -0.47818,0.48921 -0.91226,0.51401 l -12.349978,0.69866 c -0.03306,0.001 -0.06615,0.003 -0.09922,0.003"
       style="fill:#7d6b4a;fill-opacity:1;fill-rule:nonzero;stroke:none;stroke-width:0.35277778" />
    <path
       id="path660"
       d="m 108.2242,141.43739 c 0.0207,0.0138 0.31282,0.20395 0.31833,0.22876 0.0772,0.35829 -0.30455,1.82176 -0.30455,1.82176 0.71934,-1.98024 1.31465,-3.78547 1.45246,-4.75009 -0.29215,0.68901 -1.0735,1.25952 -1.40285,1.3739 z m 0,0"
       style="fill:#7d6b4a;fill-opacity:1;fill-rule:nonzero;stroke:none;stroke-width:0.35277778" />
    <path
       id="path662"
       d="m 67.782912,121.80724 c 0,0 -0.511249,4.36287 -0.285253,9.4809 4.591627,1.0101 13.050023,2.21727 13.050023,2.21727 0,0 -5.142839,-12.20253 -12.76477,-11.69817"
       style="fill:#333333;fill-opacity:1;fill-rule:nonzero;stroke:none;stroke-width:0.35277778" />
    <path
       id="path664"
       d="m 67.945522,130.94777 c -0.190169,-4.29259 0.139181,-8.05188 0.250804,-9.15431 -0.136427,0.001 -0.274228,0.006 -0.412033,0.0138 0,0 -0.51263,4.36287 -0.286634,9.4809 4.591627,1.01011 13.050023,2.21727 13.050023,2.21727 0,0 -0.06752,-0.15848 -0.195681,-0.43546 -2.053278,-0.30041 -8.574156,-1.2802 -12.406479,-2.12218"
       style="fill:#5c5c5c;fill-opacity:1;fill-rule:nonzero;stroke:none;stroke-width:0.35277778" />
    <path
       id="path666"
       d="m 79.904138,135.31615 c -3.548446,-0.34865 -10.741808,-1.84382 -13.773494,-2.37023 0.07993,1.79007 0.06201,2.83325 0.188794,4.03628 1.86862,0.60771 9.935654,2.99585 14.594803,1.30775 5.326118,-1.92787 1.653646,-7.53373 1.653646,-7.53373 0,0 1.722546,4.99125 -2.663749,4.55993"
       style="fill:#7d6b4a;fill-opacity:1;fill-rule:nonzero;stroke:none;stroke-width:0.35277778" />
    <path
       id="path668"
       d="m 106.35972,147.46493 c -0.47405,0.87368 -1.25815,1.02251 -2.15663,1.15618 -4.656394,0.69728 -7.56681,0.63803 -11.880072,0.2632 -0.830955,-0.073 -1.114832,-0.55397 -0.824065,-1.63159 0.288009,-1.0046 0.456131,-1.64814 0.879186,-2.69545 0.37207,-0.81717 1.083141,-1.06109 1.842439,-0.99632 4.062458,0.21497 8.425322,0.0841 12.722052,-0.43132 0.81993,-0.12265 1.04593,0.0992 0.87781,0.82268 -0.24529,0.96325 -0.94534,2.47909 -1.46072,3.51262"
       style="fill:#333333;fill-opacity:1;fill-rule:nonzero;stroke:none;stroke-width:0.35277778" />
    <path
       id="path670"
       d="m 107.52554,143.12274 c 0.005,0.11437 -0.01,0.25079 -0.0482,0.41616 -0.2453,0.96325 -0.94534,2.47909 -1.46073,3.51262 -0.47404,0.87368 -1.25815,1.0225 -2.15663,1.15617 -4.656388,0.69729 -7.566805,0.63804 -11.880064,0.26321 -0.213595,-0.0179 -0.389985,-0.0648 -0.530545,-0.14056 0.115755,0.33486 0.403765,0.51263 0.873675,0.55397 4.313262,0.37483 7.223678,0.43408 11.880074,-0.2632 0.89848,-0.13367 1.68258,-0.2825 2.15525,-1.15618 0.51676,-1.03353 1.21681,-2.54937 1.4621,-3.51262 0.11713,-0.50298 0.0372,-0.75929 -0.29491,-0.82957"
       style="fill:#5c5c5c;fill-opacity:1;fill-rule:nonzero;stroke:none;stroke-width:0.35277778" />
    <path
       id="path672"
       d="m 59.449915,121.79346 c 0,0 5.980689,-2.19522 10.262251,-1.54754 4.281564,0.64906 10.054167,5.44187 11.638912,12.19013 -0.344508,-3.44372 -2.265494,-11.57139 -8.123533,-13.53234 -5.856664,-1.96233 -13.77763,2.88975 -13.77763,2.88975"
       style="fill:#ffffff;fill-opacity:1;fill-rule:nonzero;stroke:none;stroke-width:0.35277778" />
    <path
       id="path674"
       d="m 64.485269,130.93812 c 0.01101,0.10473 -0.05512,0.1819 -0.147452,0.17226 -1.81901,-0.2012 -2.728513,-0.3142 -4.548902,-0.55535 -0.09371,-0.0138 -0.17639,-0.0978 -0.184658,-0.1888 -0.300413,-3.1061 -0.300413,-4.60127 0,-7.70736 0.0083,-0.091 0.09095,-0.17639 0.184658,-0.18879 1.820389,-0.24116 2.729892,-0.35554 4.547524,-0.55673 0.09371,-0.01 0.161234,0.0675 0.150209,0.17225 -0.294902,2.94211 -0.294902,5.91179 -0.0013,8.85252"
       style="fill:#333333;fill-opacity:1;fill-rule:nonzero;stroke:none;stroke-width:0.35277778" />
    <path
       id="path676"
       d="m 57.896869,130.10579 c 0.0096,0.0868 -0.0441,0.14882 -0.119893,0.14056 -1.477256,-0.16399 -2.215883,-0.25494 -3.69314,-0.452 -0.07579,-0.01 -0.143316,-0.0772 -0.150207,-0.15297 -0.243912,-2.5218 -0.243912,-3.73586 0,-6.25904 0.0069,-0.0744 0.07441,-0.14332 0.150207,-0.15297 1.477257,-0.19568 2.215884,-0.288 3.69314,-0.45199 0.07579,-0.008 0.129537,0.0551 0.121269,0.14056 -0.239776,2.38814 -0.239776,4.79971 -0.0013,7.18785"
       style="fill:#333333;fill-opacity:1;fill-rule:nonzero;stroke:none;stroke-width:0.35277778" />
    <path
       id="path678"
       d="m 52.235886,129.42779 c 0.0069,0.0689 -0.03583,0.11989 -0.09784,0.113 -1.197516,-0.13229 -1.795584,-0.20671 -2.995856,-0.36656 -0.06063,-0.007 -0.115755,-0.0634 -0.121267,-0.12402 -0.198438,-2.04501 -0.198438,-3.03031 0,-5.07669 0.0055,-0.0593 0.06063,-0.11576 0.121267,-0.12403 1.200272,-0.15847 1.79834,-0.23427 2.995856,-0.36656 0.06063,-0.007 0.106108,0.0441 0.09922,0.11438 -0.195681,1.93614 -0.194303,3.89296 -0.0014,5.83048"
       style="fill:#333333;fill-opacity:1;fill-rule:nonzero;stroke:none;stroke-width:0.35277778" />
    <path
       id="path680"
       d="m 47.715921,128.89449 c 0.0055,0.0565 -0.03032,0.0978 -0.07993,0.0923 -0.978407,-0.10886 -1.468988,-0.1695 -2.447395,-0.29903 -0.05099,-0.007 -0.09509,-0.0524 -0.09922,-0.10198 -0.162609,-1.67156 -0.162609,-2.47495 0,-4.14651 0.0041,-0.051 0.04823,-0.0965 0.09922,-0.10198 0.978407,-0.13091 1.468988,-0.19155 2.447395,-0.29903 0.04961,-0.007 0.08544,0.0345 0.07993,0.0923 -0.158475,1.58199 -0.158475,3.18052 0,4.76388"
       style="fill:#333333;fill-opacity:1;fill-rule:nonzero;stroke:none;stroke-width:0.35277778" />
    <path
       id="path682"
       d="m 44.013132,128.44938 c 0.0055,0.0455 -0.02343,0.0799 -0.06477,0.0744 -0.795128,-0.0868 -1.193381,-0.1378 -1.989887,-0.24253 -0.04134,-0.005 -0.07717,-0.0427 -0.0813,-0.0827 -0.130914,-1.35875 -0.130914,-2.01332 0,-3.37344 0.0041,-0.04 0.03996,-0.0758 0.0813,-0.0813 0.796506,-0.10611 1.193381,-0.15572 1.989887,-0.24392 0.03996,-0.005 0.07028,0.0289 0.06615,0.0758 -0.129535,1.28571 -0.129535,2.58657 -0.0014,3.87366"
       style="fill:#333333;fill-opacity:1;fill-rule:nonzero;stroke:none;stroke-width:0.35277778" />
    <path
       id="path684"
       d="m 41.025545,128.08282 c 0.0028,0.0372 -0.02067,0.0634 -0.05374,0.0606 -0.644921,-0.0717 -0.967382,-0.11162 -1.613682,-0.19705 -0.03307,-0.004 -0.06201,-0.0345 -0.06477,-0.0675 -0.106109,-1.10106 -0.106109,-1.6316 0,-2.73403 0.0028,-0.0317 0.03169,-0.062 0.06477,-0.0662 0.6463,-0.0868 0.968761,-0.12678 1.613682,-0.19844 0.03307,-0.003 0.05788,0.0248 0.05374,0.0606 -0.106109,1.04455 -0.104731,2.09737 0,3.14192"
       style="fill:#333333;fill-opacity:1;fill-rule:nonzero;stroke:none;stroke-width:0.35277778" />
    <path
       id="path686"
       d="m 38.677368,127.83202 c 0.0027,0.0317 -0.01653,0.0551 -0.0441,0.0524 -0.542947,-0.0606 -0.81442,-0.0937 -1.357368,-0.16674 -0.02756,-0.003 -0.05236,-0.0289 -0.05512,-0.0551 -0.08957,-0.92742 -0.08957,-1.3739 0,-2.29994 0.0028,-0.0275 0.02756,-0.0524 0.05512,-0.0565 0.542948,-0.0717 0.814421,-0.10611 1.357368,-0.16537 0.02756,-0.003 0.04823,0.0193 0.0441,0.051 -0.08819,0.87781 -0.08819,1.76389 0,2.64033"
       style="fill:#333333;fill-opacity:1;fill-rule:nonzero;stroke:none;stroke-width:0.35277778" />
    <path
       id="path688"
       d="m 36.812882,127.63359 c 0.0028,0.0262 -0.01378,0.0469 -0.03721,0.0441 -0.461643,-0.051 -0.691775,-0.0799 -1.153418,-0.14057 -0.02343,-0.004 -0.0441,-0.0248 -0.04548,-0.0482 -0.07717,-0.78686 -0.07717,-1.16582 0,-1.95267 0.0014,-0.0234 0.02205,-0.0455 0.04548,-0.0482 0.461643,-0.062 0.691775,-0.0896 1.153418,-0.14194 0.02343,-10e-4 0.03996,0.0179 0.03721,0.0441 -0.07441,0.74551 -0.07441,1.49793 0,2.24344"
       style="fill:#333333;fill-opacity:1;fill-rule:nonzero;stroke:none;stroke-width:0.35277778" />
    <path
       id="path690"
       d="m 35.299796,127.482 c 0.0028,0.0234 -0.0124,0.04 -0.03169,0.0386 -0.398253,-0.0441 -0.598068,-0.0689 -0.997699,-0.12264 -0.02067,-0.003 -0.03858,-0.0207 -0.03996,-0.0413 -0.06615,-0.68075 -0.06615,-1.00872 0,-1.68948 0.0014,-0.0193 0.01929,-0.0386 0.03996,-0.0413 0.399631,-0.0524 0.599446,-0.0772 0.997699,-0.12126 0.01929,-0.003 0.03445,0.0138 0.03169,0.0372 -0.06477,0.64492 -0.06339,1.29535 0,1.94027"
       style="fill:#333333;fill-opacity:1;fill-rule:nonzero;stroke:none;stroke-width:0.35277778" />
    <path
       id="path692"
       d="m 33.992038,127.32628 c 0.0014,0.0193 -0.01103,0.0345 -0.02756,0.0317 -0.334863,-0.0372 -0.501606,-0.0579 -0.837847,-0.10198 -0.01653,-0.003 -0.03169,-0.0179 -0.03307,-0.0345 -0.05512,-0.57188 -0.05512,-0.84749 0,-1.418 0.0014,-0.0179 0.01653,-0.0331 0.03307,-0.0345 0.336241,-0.0455 0.502984,-0.0661 0.837847,-0.10335 0.01653,-0.001 0.02894,0.0124 0.02756,0.0317 -0.05512,0.54157 -0.05512,1.08727 0,1.62884"
       style="fill:#333333;fill-opacity:1;fill-rule:nonzero;stroke:none;stroke-width:0.35277778" />
    <path
       id="path694"
       d="m 32.925436,127.14576 c 0.0027,0.0152 -0.0069,0.0262 -0.02067,0.0248 -0.260449,-0.0289 -0.389985,-0.0455 -0.650434,-0.0799 -0.01378,-0.001 -0.0248,-0.0138 -0.02618,-0.0275 -0.04272,-0.44373 -0.04272,-0.65733 0,-1.10243 0.0014,-0.0124 0.0124,-0.0248 0.02618,-0.0275 0.260449,-0.0345 0.389985,-0.051 0.650434,-0.0799 0.01378,-0.001 0.02343,0.011 0.02067,0.0248 -0.04134,0.42167 -0.04134,0.84611 0,1.26779"
       style="fill:#333333;fill-opacity:1;fill-rule:nonzero;stroke:none;stroke-width:0.35277778" />
    <path
       id="path696"
       d="m 32.098613,127.04241 c 0,0.0124 -0.0069,0.0207 -0.01791,0.0193 -0.21773,-0.0234 -0.326595,-0.0372 -0.544325,-0.0661 -0.01102,-0.001 -0.02205,-0.011 -0.02205,-0.0221 -0.03583,-0.37207 -0.03583,-0.55122 0,-0.92329 0,-0.01 0.01102,-0.0207 0.02205,-0.0221 0.21773,-0.0289 0.326595,-0.0427 0.544325,-0.0661 0.01102,-10e-4 0.01791,0.008 0.01791,0.0207 -0.03583,0.3514 -0.03583,0.70694 0,1.05972"
       style="fill:#333333;fill-opacity:1;fill-rule:nonzero;stroke:none;stroke-width:0.35277778" />
    <path
       id="path698"
       d="m 31.424753,126.94594 c 0.0014,0.01 -0.0055,0.0165 -0.01378,0.0165 -0.179145,-0.0193 -0.26734,-0.0317 -0.446484,-0.0551 -0.0083,-0.001 -0.01654,-0.008 -0.01791,-0.0179 -0.02894,-0.30316 -0.02894,-0.45061 0,-0.75378 0.0014,-0.01 0.0096,-0.0179 0.01791,-0.0193 0.179144,-0.0234 0.267339,-0.0345 0.446484,-0.0538 0.0083,-0.001 0.01516,0.006 0.01378,0.0165 -0.02894,0.288 -0.02894,0.57877 0,0.86678"
       style="fill:#333333;fill-opacity:1;fill-rule:nonzero;stroke:none;stroke-width:0.35277778" />
    <path
       id="path700"
       d="m 30.868025,126.87153 c 0,0.008 -0.0055,0.0152 -0.0124,0.0138 -0.14745,-0.0165 -0.221864,-0.0248 -0.369314,-0.0455 -0.0083,-0.001 -0.01378,-0.007 -0.01516,-0.0152 -0.0248,-0.25219 -0.0248,-0.37345 0,-0.62563 0.0014,-0.007 0.0069,-0.0138 0.01516,-0.0152 0.14745,-0.0193 0.221864,-0.0289 0.369314,-0.0455 0.0069,0 0.0124,0.005 0.0124,0.0138 -0.0248,0.23978 -0.02343,0.48093 0,0.71933"
       style="fill:#333333;fill-opacity:1;fill-rule:nonzero;stroke:none;stroke-width:0.35277778" />
    <path
       id="path702"
       d="m 64.569327,134.68363 c -0.815797,-0.16537 -1.639866,-0.33349 -2.472197,-0.50299 -1.663296,-0.34037 -3.355526,-0.67523 -5.040863,-1.05144 -1.686722,-0.36656 -3.373441,-0.73311 -5.033976,-1.09278 -1.657781,-0.37483 -3.289378,-0.74277 -4.867232,-1.09968 -1.577854,-0.36242 -3.103342,-0.71244 -4.548904,-1.04593 -1.445562,-0.33624 -2.811198,-0.65457 -4.072103,-0.94809 -4.316016,-1.03077 -7.397309,-1.76527 -8.193816,-1.95543 v 0.0551 c 0.813043,0.21635 3.865398,1.02388 8.130426,2.15249 1.254015,0.32384 2.612761,0.67662 4.050054,1.04869 1.437294,0.36793 2.954514,0.75516 4.522722,1.15617 1.570964,0.3955 3.192915,0.8034 4.842426,1.21819 1.652269,0.40238 3.330719,0.81028 5.009168,1.21818 1.677075,0.41755 3.365172,0.79375 5.022954,1.17547 0.829577,0.19017 1.652264,0.37896 2.465308,0.56499 0.598069,0.13781 1.192,0.2577 1.781804,0.37759 v -0.97152 c -0.52779,-0.0937 -1.059714,-0.18879 -1.595771,-0.29903"
       style="fill:#ffcc3a;fill-opacity:1;fill-rule:nonzero;stroke:none;stroke-width:0.35277778" />
    <path
       id="path704"
       d="m 37.070575,125.14898 c 0.07028,-0.45199 0.198438,-0.69315 0.318327,-0.82269 -0.0565,0.0124 -0.112999,0.0248 -0.169499,0.0372 -0.10473,0.1571 -0.199815,0.39825 -0.257692,0.76757 -0.141939,0.91226 -0.05099,3.98391 0.395496,5.30406 0.04272,0.0179 0.08406,0.0345 0.125402,0.0524 -0.42168,-1.15204 -0.588423,-4.20026 -0.412034,-5.33852"
       style="fill:#333333;fill-opacity:1;fill-rule:nonzero;stroke:none;stroke-width:0.35277778" />
    <path
       id="path706"
       d="m 74.387851,145.47229 c 0,0 -4.256762,-1.9389 -6.480913,-5.77811 -0.478179,-0.50023 -6.751011,-1.97887 -7.109302,-2.03537 -0.359666,-0.0565 -1.127233,0.9536 -1.357365,1.28295 -0.230135,0.32798 -1.218187,0.13092 -1.522733,0.008 1.756998,0.71245 16.470313,6.52226 16.470313,6.52226"
       style="fill:#333333;fill-opacity:1;fill-rule:nonzero;stroke:none;stroke-width:0.35277778" />
    <path
       id="path708"
       d="m 44.673212,133.45855 c 0,0 -1.725304,-0.8971 -2.627919,-2.45429 -0.192925,-0.20256 -2.736784,-0.80339 -2.882856,-0.82544 -0.144694,-0.0234 -0.45613,0.38723 -0.549837,0.51952 -0.09371,0.13367 -0.493337,0.0537 -0.617361,0.004 0.712446,0.28939 6.677973,2.75608 6.677973,2.75608"
       style="fill:#333333;fill-opacity:1;fill-rule:nonzero;stroke:none;stroke-width:0.35277778" />
    <path
       id="path710"
       d="m 36.808748,130.20914 c 0,0 -0.85714,-0.44511 -1.305002,-1.21956 -0.09646,-0.1006 -1.358746,-0.39826 -1.431782,-0.40928 -0.07166,-0.011 -0.225998,0.19154 -0.272851,0.25907 -0.04685,0.0648 -0.245291,0.0262 -0.307303,0.001 0.354156,0.14332 3.316938,1.36839 3.316938,1.36839"
       style="fill:#333333;fill-opacity:1;fill-rule:nonzero;stroke:none;stroke-width:0.35277778" />
    <path
       id="path712"
       d="m 31.722409,128.12692 c 0,0 -0.323839,-0.14745 -0.472667,-0.40376 -0.03169,-0.0331 -0.449241,-0.1323 -0.472667,-0.13505 -0.0248,-0.004 -0.07579,0.0634 -0.09095,0.0854 -0.01516,0.0221 -0.0813,0.008 -0.101975,0 0.117134,0.0469 1.13826,0.45337 1.13826,0.45337"
       style="fill:#333333;fill-opacity:1;fill-rule:nonzero;stroke:none;stroke-width:0.35277778" />
    <path
       id="path714"
       d="m 98.31473,142.4723 c 0,0.5085 -0.372073,0.92053 -0.830958,0.92053 -0.460267,0 -0.832334,-0.41203 -0.832334,-0.92053 0,-0.5085 0.372067,-0.92053 0.832334,-0.92053 0.458885,0 0.830958,0.41203 0.830958,0.92053"
       style="fill:#ffeec5;fill-opacity:1;fill-rule:nonzero;stroke:none;stroke-width:0.35277778" />
    <path
       id="path716"
       d="m 97.483772,141.55177 c -0.0441,0 -0.08406,0.007 -0.125402,0.0138 0.399629,0.0675 0.706935,0.44649 0.706935,0.90675 0,0.46026 -0.307306,0.83922 -0.706935,0.90675 0.04134,0.007 0.0813,0.0138 0.125402,0.0138 0.458885,0 0.830958,-0.41203 0.830958,-0.92053 0,-0.50849 -0.372073,-0.92053 -0.830958,-0.92053"
       style="fill:#7d6b4a;fill-opacity:1;fill-rule:nonzero;stroke:none;stroke-width:0.35277778" />
    <path
       id="path718"
       d="m 97.266041,147.7805 c 0,0.55949 -0.525031,1.01286 -1.174086,1.01286 -0.64906,0 -1.174091,-0.45337 -1.174091,-1.01286 0,-0.56086 0.525031,-1.01423 1.174091,-1.01423 0.649055,0 1.174086,0.45337 1.174086,1.01423"
       style="fill:#595959;fill-opacity:1;fill-rule:nonzero;stroke:none;stroke-width:0.35277778" />
    <path
       id="path720"
       d="m 97.266041,147.7805 c 0,0.55949 -0.409276,1.01286 -0.916392,1.01286 -0.505743,0 -0.916398,-0.45337 -0.916398,-1.01286 0,-0.56086 0.410655,-1.01423 0.916398,-1.01423 0.507116,0 0.916392,0.45337 0.916392,1.01423"
       style="fill:#ffffff;fill-opacity:1;fill-rule:nonzero;stroke:none;stroke-width:0.35277778" />
    <path
       id="path722"
       d="m 96.349649,146.84206 c -0.463021,0 -0.840608,0.4203 -0.840608,0.93844 0,0.51677 0.377587,0.93707 0.840608,0.93707 0.464396,0 0.840602,-0.4203 0.840602,-0.93707 0,-0.51814 -0.376206,-0.93844 -0.840602,-0.93844 m 0,2.02709 c -0.547082,0 -0.992188,-0.48782 -0.992188,-1.08865 0,-0.60082 0.445106,-1.09002 0.992188,-1.09002 0.547079,0 0.993563,0.4892 0.993563,1.09002 0,0.60083 -0.446484,1.08865 -0.993563,1.08865"
       style="fill:#e8e8e8;fill-opacity:1;fill-rule:nonzero;stroke:none;stroke-width:0.35277778" />
    <path
       id="path724"
       d="m 96.349649,146.76627 c -0.04686,0 -0.09233,0.008 -0.137806,0.0152 0.440971,0.0744 0.779971,0.49058 0.779971,0.99907 0,0.50712 -0.339,0.92467 -0.779971,0.9977 0.04548,0.008 0.09095,0.0152 0.137806,0.0152 0.507116,0 0.916392,-0.45337 0.916392,-1.01285 0,-0.56087 -0.409276,-1.01424 -0.916392,-1.01424"
       style="fill:#9c9c9c;fill-opacity:1;fill-rule:nonzero;stroke:none;stroke-width:0.35277778" />
    <path
       id="path726"
       d="m 106.01797,147.13007 c 0,0.5085 -0.47681,0.91915 -1.06661,0.91915 -0.58842,0 -1.06522,-0.41065 -1.06522,-0.91915 0,-0.50849 0.4768,-0.92053 1.06522,-0.92053 0.5898,0 1.06661,0.41204 1.06661,0.92053"
       style="fill:#595959;fill-opacity:1;fill-rule:nonzero;stroke:none;stroke-width:0.35277778" />
    <path
       id="path728"
       d="m 106.01797,147.13007 c 0,0.5085 -0.37208,0.91915 -0.83234,0.91915 -0.45889,0 -0.83233,-0.41065 -0.83233,-0.91915 0,-0.50849 0.37344,-0.92053 0.83233,-0.92053 0.46026,0 0.83234,0.41204 0.83234,0.92053"
       style="fill:#ffffff;fill-opacity:1;fill-rule:nonzero;stroke:none;stroke-width:0.35277778" />
    <path
       id="path730"
       d="m 105.18563,146.27844 c -0.4203,0 -0.76343,0.38172 -0.76343,0.85163 0,0.46991 0.34313,0.85163 0.76343,0.85163 0.42168,0 0.76343,-0.38172 0.76343,-0.85163 0,-0.46991 -0.34175,-0.85163 -0.76343,-0.85163 m 0,1.84106 c -0.49609,0 -0.90124,-0.44373 -0.90124,-0.98943 0,-0.5457 0.40515,-0.98943 0.90124,-0.98943 0.49747,0 0.90124,0.44373 0.90124,0.98943 0,0.5457 -0.40377,0.98943 -0.90124,0.98943"
       style="fill:#e8e8e8;fill-opacity:1;fill-rule:nonzero;stroke:none;stroke-width:0.35277778" />
    <path
       id="path732"
       d="m 105.18563,146.20954 c -0.0427,0 -0.0841,0.007 -0.12402,0.0138 0.39963,0.0675 0.70693,0.44511 0.70693,0.90675 0,0.46026 -0.3073,0.83923 -0.70693,0.90675 0.04,0.006 0.0813,0.0138 0.12402,0.0138 0.46026,0 0.83234,-0.41204 0.83234,-0.92053 0,-0.5085 -0.37208,-0.92053 -0.83234,-0.92053"
       style="fill:#9c9c9c;fill-opacity:1;fill-rule:nonzero;stroke:none;stroke-width:0.35277778" />
    <path
       id="path734"
       d="m 107.97478,141.88112 c 0,0.5085 -0.33349,0.92053 -0.74414,0.92053 -0.41203,0 -0.74552,-0.41203 -0.74552,-0.92053 0,-0.50849 0.33349,-0.92053 0.74552,-0.92053 0.41065,0 0.74414,0.41204 0.74414,0.92053"
       style="fill:#ffeec5;fill-opacity:1;fill-rule:nonzero;stroke:none;stroke-width:0.35277778" />
    <path
       id="path736"
       d="m 107.23064,140.96059 c -0.0386,0 -0.0758,0.007 -0.113,0.0138 0.35967,0.0675 0.6339,0.44511 0.6339,0.90675 0,0.46165 -0.27423,0.83923 -0.6339,0.90537 0.0372,0.008 0.0744,0.0152 0.113,0.0152 0.41065,0 0.74552,-0.41203 0.74552,-0.92052 0,-0.5085 -0.33487,-0.92054 -0.74552,-0.92054"
       style="fill:#7d6b4a;fill-opacity:1;fill-rule:nonzero;stroke:none;stroke-width:0.35277778" />
    <path
       id="path738"
       d="m 106.33353,139.90639 c 0,0.13918 -0.11437,0.26045 -0.25769,0.27148 l -6.621473,0.51538 c -0.141941,0.011 -0.257693,-0.0923 -0.257693,-0.23013 -0.0013,-0.13918 0.114377,-0.26045 0.256315,-0.27147 l 6.621471,-0.51539 c 0.14332,-0.011 0.25907,0.0923 0.25907,0.23013"
       style="fill:#333333;fill-opacity:1;fill-rule:nonzero;stroke:none;stroke-width:0.35277778" />
    <path
       id="path740"
       d="m 106.33629,140.75526 c 0,0.13781 -0.11575,0.25907 -0.25769,0.2701 l -6.621478,0.51539 c -0.141936,0.0124 -0.25907,-0.0909 -0.25907,-0.23014 0,-0.1378 0.115756,-0.26044 0.257691,-0.27009 l 6.621477,-0.51677 c 0.14194,-0.011 0.25769,0.0923 0.25907,0.23151"
       style="fill:#333333;fill-opacity:1;fill-rule:nonzero;stroke:none;stroke-width:0.35277778" />
    <path
       id="path742"
       d="m 106.33905,141.60276 c 0,0.13918 -0.11576,0.26045 -0.2577,0.27147 l -6.621471,0.51539 c -0.143317,0.011 -0.25907,-0.0923 -0.25907,-0.23013 0,-0.13919 0.114377,-0.26045 0.257694,-0.27148 l 6.621477,-0.51538 c 0.14193,-0.011 0.25769,0.0923 0.25907,0.23013"
       style="fill:#333333;fill-opacity:1;fill-rule:nonzero;stroke:none;stroke-width:0.35277778" />
    <path
       id="path744"
       d="m 106.34042,142.45163 c 0,0.1378 -0.11437,0.25907 -0.25769,0.2701 l -6.621473,0.51538 c -0.141936,0.0124 -0.257693,-0.0909 -0.257693,-0.23013 -0.0013,-0.1378 0.114376,-0.25907 0.257693,-0.2701 l 6.620093,-0.51676 c 0.14332,-0.011 0.25907,0.0923 0.25907,0.23151"
       style="fill:#333333;fill-opacity:1;fill-rule:nonzero;stroke:none;stroke-width:0.35277778" />
    <path
       id="path746"
       d="m 86.332688,149.03452 c -3.604948,-1.55443 -7.207142,-4.51446 -8.998593,-7.66327 l -5.142836,-1.15204 c 0,0 7.22643,6.96461 14.141429,8.81531"
       style="fill:#ffffff;fill-opacity:1;fill-rule:nonzero;stroke:none;stroke-width:0.35277778" />
  </g>
</svg>
