<svg height="41.798141mm" viewBox="0 0 83.47699 41.798141" width="83.47699mm" xmlns="http://www.w3.org/2000/svg" xmlns:xlink="http://www.w3.org/1999/xlink"><clipPath id="a"><path d="m0 0h56v60h-56z"/></clipPath><clipPath id="b"><path d="m.628906.882812h54.964844v59.058594h-54.964844zm0 0"/></clipPath><clipPath id="c"><path d="m0 0h214v78h-214z"/></clipPath><clipPath id="d"><path d="m.800781.359375h212.902339v77.378906h-212.902339zm0 0"/></clipPath><g transform="translate(-29.829423 -115.11182)"><path d="m97.836549 155.36936 13.931971-2.29581-4.22231-1.28571-13.132705 1.79145zm0 0" fill="#919191"/><path d="m89.587613 152.22881 14.010517-1.7446-4.167191-1.44969-13.193337 1.27055zm0 0" fill="#919191"/><path d="m113.30641 152.23984c-.52779-.17088-1.29949-.42169-2.28341-.74001-1.96784-.63803-4.78179-1.55029-8.15661-2.64308-3.377574-1.08865-7.316005-2.3592-11.538316-3.71933-2.111153-.67799-4.292589-1.37665-6.509851-2.0891-2.220021-.70418-4.474493-1.41938-6.72896-2.13458-4.51032-1.42627-9.020638-2.85254-13.249838-4.19062-2.115291-.66559-4.156163-1.32016-6.099199-1.91823-1.941653-.6022-3.77858-1.17133-5.472189-1.69636-3.391352-1.04731-6.210819-1.93477-8.192437-2.53283-1.980242-.60359-3.111611-.94809-3.111611-.94809l-.170877.52365s1.117589.38723 3.073026 1.06522c1.954058.68489 4.75561 1.62884 8.112511 2.77813 1.679828.57326 3.49746 1.19476 5.422582 1.85208 1.922359.66146 3.956346 1.33532 6.059234 2.04226 4.204393 1.40973 8.689909 2.91317 13.175422 4.41799 2.243447.74965 4.486891 1.4993 6.695887 2.23655 2.210376.73036 4.386297 1.4497 6.491938 2.14699 4.212664 1.3863 8.144206 2.68028 11.513508 3.7896 3.37206 1.10381 6.18326 2.02296 8.14972 2.6665.98392.32247 1.75562.57465 2.28203.74828.226.073.40514.13091.53744.17501zm0 0" fill="#919191"/><path d="m99.703793 155.03036c-.509873-.20808-1.226455-.50023-2.127692-.86816-1.916851-.78135-4.653637-1.89756-7.940254-3.23701-3.288004-1.33395-7.123084-2.88975-11.232394-4.55717-2.056032-.83096-4.179588-1.68948-6.338974-2.56316-2.160765-.8654-4.357357-1.74459-6.552571-2.62516-4.393186-1.75424-8.787751-3.50849-12.906707-5.15386-2.060168-.81994-4.047299-1.62333-5.940723-2.36058-1.892047-.74414-3.682119-1.44694-5.333009-2.096-3.303157-1.29398-6.050965-2.38676-7.984353-3.12952-1.930631-.7469-2.286165-.8847-2.286165-.8847l-.720715.0909s69.231265 29.21027 69.363557 29.26402zm0 0" fill="#919191"/><g clip-path="url(#c)" transform="matrix(.09333912 0 0 .09333912 29.75457 127.50405)"><g clip-path="url(#d)"><path d="m1.980469.359375s-.660157.054687-.820313.089844c-.15625.039062-.839844.003906.234375.550781 1.070313.546875 114.503909 65.34375 134.085939 72.914062 19.58594 7.566407 91.77734 4.085938 75.98047-12.023437-36.98047-14.984375-209.480471-61.53125-209.480471-61.53125" fill="#636363"/></g></g><path d="m73.99373 120.89498-3.396861.452-.501607-4.50068c-3.1061 1.17134-39.581393 8.95863-39.581393 8.95863-.311436.0882-.22462.93569-.230132 1.25677l52.444003 8.64857zm0 0" fill="#e3e3e3"/><path d="m73.99373 120.89498-3.396861.452-.413414-3.71106c-4.278807 1.36701-39.763292 8.23378-39.768804 8.23515-.191548.22462-.12678.90813-.130914 1.19063l52.444003 8.64857zm0 0" fill="#cccabd"/><path d="m32.919924 127.29872c.0055-.32108.02343-.6463.05926-.94671-.03583.30041-.05374.62563-.05926.94671" fill="#7d6b4a"/><path d="m30.280981 126.86188c0 .40514.05099.72761.172255.76895 1.869998.62976 40.11056 16.69907 42.774309 17.31643l-1.226455-11.00502zm0 0" fill="#7d6b4a"/><path d="m109.93297 136.65973c-1.84244-8.66923-15.06747-19.08169-15.06747-19.08169l-21.356838-1.60955s-.603578.1006-.792372.17225c-1.570963.59532-4.863097 3.46302-4.863097 3.46302s-1.63022 3.70692-1.63022 9.66418c0 5.7602.734497 10.31737.734497 10.31737.85576.40376 4.169942 1.96646 7.0652 3.37482 2.844271 1.52273 9.687608 5.45978 15.490529 7.20025 3.819925 1.14652 15.121211 1.36839 16.457911-1.43592 3.85713-8.09322 4.02939-11.7464 3.96186-12.06473" fill="#ffcc3a"/><path d="m109.93297 136.65973c-1.84244-8.66923-15.06747-19.08169-15.06747-19.08169l-21.356838-1.60955s-.596689.11989-.792372.17225c-2.683039.71658-3.96186.90951-4.863097 2.0395-1.354611 1.69912-1.63022 5.13044-1.63022 11.0877 0 5.7602.734497 10.31737.734497 10.31737.418923 2.81258 4.139628 4.32015 7.03626 5.72988 3.959106 1.59026 9.399598 3.39687 15.519469 4.84519 3.81303.90261 15.121211 1.36839 16.457911-1.43592 3.85713-8.09322 4.02939-11.7464 3.96186-12.06473" fill="#ffcc3a"/><path d="m109.93297 136.65973c-.14332-.67523-.35691-1.36288-.62701-2.05465-1.0225.98392-2.12631 1.84657-3.2315 2.58382-2.21312 1.20716-4.57233 2.26963-6.435435 3.93568-11.097344.36518-22.559864-.60909-33.129418-3.66007.144695 1.28571.1378 2.11666.1378 2.11666.418926 2.81258 4.449691 4.32429 7.346323 5.73402 3.959106 1.59026 9.399598 3.39687 15.519469 4.84519 3.81303.90261 15.121211 1.36839 16.457911-1.43592 3.85713-8.09322 4.02939-11.7464 3.96186-12.06473" fill="#7d6b4a"/><path d="m109.93159 136.90503c-2.70784-9.28936-16.803799-19.32699-16.803799-19.32699l-9.734463-1.54616v5.29994c3.256307 3.44096 11.652692 11.38259 12.396835 18.97834.01929.19293.133671-.19017-.421679 2.58244 0 0-2.863564-.20119-3.595301.54019-1.241613 1.2554-1.502061 4.23885-2.589335 6.60494.108866.0413.217729.0909.329351.12265 4.280186 1.23885 15.121211 1.36839 16.457911-1.43592 3.85713-8.09184 4.05143-11.50662 3.96048-11.81943" fill="#f8bf35"/><path d="m108.1801 131.05939c-5.13594-9.74136-10.663255-13.79141-16.338017-15.02751-9.549805-1.93339-17.294379-.26596-18.872232.0317 1.160306-.14055 6.148805.17364 12.719293 13.94713 2.027092 4.24849 4.412478 9.45059 8.567262 10.68669 3.87918 1.15479 12.372034 1.30224 14.986164-1.78732 1.35186-1.59714.67938-4.5489-1.06247-7.85068" fill="#f8bf35"/><path d="m108.1801 131.05939c-5.13594-9.74136-10.663255-13.79141-16.338017-15.02751-9.549805-1.93339-17.294379-.26596-18.872232.0317 1.160306-.14055 6.148805.17364 12.719293 13.94713 2.027092 4.24849 4.412478 9.45059 8.567262 10.68669 3.87918 1.15479 12.372034 1.30224 14.986164-1.78732 1.35186-1.59714.67938-4.5489-1.06247-7.85068" fill="#f8bf35"/><path d="m108.38543 136.56878c.42031.64217.1819 1.19614-.53606 1.23611l-12.349973.70004c-.716579.04-1.642621-.44787-2.0643-1.09003 0 0-3.771691-7.31049-4.982986-9.76616-1.98851-4.03489-6.250784-9.62146-6.250784-9.62146-.421677-.64217-.181901-1.19476.536057-1.2361l9.296246.003c1.19338-.003 1.810743.38171 2.490119 1.05833 0 0 4.901681 4.93889 7.681181 8.72849 2.50114 3.40927 6.1805 9.98803 6.1805 9.98803" fill="#333"/><path d="m94.523749 117.85227c-.679376-.67662-1.296739-1.06109-2.490119-1.05833l-9.296246-.003c-.717958.0413-.957734.59393-.536057 1.2361 0 0 1.216809 1.59439 2.651345 3.69314l13.01006-.33349c-1.823143-2.0078-3.338983-3.53466-3.338983-3.53466" fill="#424242"/><path d="m106.84065 133.88437-14.918639.59117c.855763 1.6633 1.513086 2.93936 1.513086 2.93936.423058.64216 1.347721 1.12999 2.0643 1.09003l12.349973-.70004c.71796-.04.95774-.59394.53606-1.23611 0 0-.62976-1.12448-1.54478-2.68441" fill="#424242"/><path d="m82.737384 117.77097 9.296246.003c1.19338-.003 1.810743.38171 2.490119 1.05833 0 0 4.901681 4.94027 7.681181 8.72849 2.50114 3.40927 6.1805 9.9894 6.1805 9.9894.01.0152.0152.0289.0234.0441.23978-.22462.25218-.60358-.0234-1.02526 0 0-3.67936-6.57875-6.1805-9.98802-2.7795-3.7896-7.681181-8.72849-7.681181-8.72849-.679376-.67662-1.296739-1.06109-2.490119-1.05833l-9.296246-.003c-.700045.04-.9412.56912-.559483 1.192.125402-.11851.311436-.19706.559483-.21222" fill="#5c5c5c"/><path d="m93.673497 137.27572c.367937.54708 1.185111.98392 1.810742.9536l12.349981-.69867c.22738-.0138.38861-.0882.45062-.21359.073-.14332.0248-.36105-.13092-.59669-.0469-.0827-3.70967-6.6201-6.17085-9.977-2.735408-3.72897-7.606774-8.64856-7.655005-8.6968-.635275-.6339-1.189249-.9784-2.284785-.9784l-9.305896-.001c-.212217.0124-.373446.0882-.435462.21222-.07304.14331-.02479.36104.129537.59806.03168.04 4.289836 5.63893 6.268697 9.65041 1.169955 2.37573 4.791437 9.39408 4.973341 9.74824m1.741839 1.50619c-.804772 0-1.754243-.52227-2.210374-1.21543l-.01378-.0248c-.03722-.073-3.78824-7.34081-4.985755-9.77029-1.954056-3.96461-6.180503-9.52086-6.223222-9.57599-.276984-.42167-.336241-.83922-.172254-1.16306.154339-.30868.478178-.49196.912262-.51538l9.311404.001c1.285709 0 1.978864.43545 2.68442 1.13825.04961.051 4.949913 4.99953 7.708743 8.76019 2.48185 3.38584 6.16121 9.9522 6.19842 10.01696.25631.38861.31557.80753.15158 1.13275-.15434.30592-.47818.48921-.91226.51401l-12.349978.69866c-.03306.001-.06615.003-.09922.003" fill="#7d6b4a"/><g clip-path="url(#a)" transform="matrix(.09333912 0 0 .09333912 86.551795 116.92071)"><g clip-path="url(#b)"><path d="m37.496094 28.628906c-7.875-10.742187-21.773438-24.742187-21.773438-24.742187-1.925781-1.917969-3.675781-3.007813-7.058594-3l-8.035156-.007813c3.269532.886719 4.832032 2.238282 6.757813 4.15625 0 0 13.898437 14 21.773437 24.742188 7.089844 9.664062 17.519532 28.3125 17.519532 28.3125.441406.671875.625 1.308594.582031 1.851562l8.109375-.457031c.375-.648437.292968-1.554687-.355469-2.542969 0 0-10.429687-18.648437-17.519531-28.3125" fill="#b5b5b5"/></g></g><path d="m93.673497 137.27572c.367937.54708 1.185111.98392 1.810742.9536l12.349981-.69867c.22738-.0138.38861-.0882.45062-.21359.073-.14332.0248-.36105-.13092-.59669-.0469-.0827-3.70967-6.6201-6.17085-9.977-2.735408-3.72897-7.606774-8.64856-7.655005-8.6968-.635275-.6339-1.189249-.9784-2.284785-.9784l-9.305896-.001c-.212217.0124-.373446.0882-.435462.21222-.07304.14331-.02479.36104.129537.59806.03168.04 4.289836 5.63893 6.268697 9.65041 1.169955 2.37573 4.791437 9.39408 4.973341 9.74824m1.741839 1.50619c-.804772 0-1.754243-.52227-2.210374-1.21543l-.01378-.0248c-.03722-.073-3.78824-7.34081-4.985755-9.77029-1.954056-3.96461-6.180503-9.52086-6.223222-9.57599-.276984-.42167-.336241-.83922-.172254-1.16306.154339-.30868.478178-.49196.912262-.51538l9.311404.001c1.285709 0 1.978864.43545 2.68442 1.13825.04961.051 4.949913 4.99953 7.708743 8.76019 2.48185 3.38584 6.16121 9.9522 6.19842 10.01696.25631.38861.31557.80753.15158 1.13275-.15434.30592-.47818.48921-.91226.51401l-12.349978.69866c-.03306.001-.06615.003-.09922.003" fill="#7d6b4a"/><path d="m108.2242 141.43739c.0207.0138.31282.20395.31833.22876.0772.35829-.30455 1.82176-.30455 1.82176.71934-1.98024 1.31465-3.78547 1.45246-4.75009-.29215.68901-1.0735 1.25952-1.40285 1.3739zm0 0" fill="#7d6b4a"/><path d="m67.782912 121.80724s-.511249 4.36287-.285253 9.4809c4.591627 1.0101 13.050023 2.21727 13.050023 2.21727s-5.142839-12.20253-12.76477-11.69817" fill="#333"/><path d="m67.945522 130.94777c-.190169-4.29259.139181-8.05188.250804-9.15431-.136427.001-.274228.006-.412033.0138 0 0-.51263 4.36287-.286634 9.4809 4.591627 1.01011 13.050023 2.21727 13.050023 2.21727s-.06752-.15848-.195681-.43546c-2.053278-.30041-8.574156-1.2802-12.406479-2.12218" fill="#5c5c5c"/><path d="m79.904138 135.31615c-3.548446-.34865-10.741808-1.84382-13.773494-2.37023.07993 1.79007.06201 2.83325.188794 4.03628 1.86862.60771 9.935654 2.99585 14.594803 1.30775 5.326118-1.92787 1.653646-7.53373 1.653646-7.53373s1.722546 4.99125-2.663749 4.55993" fill="#7d6b4a"/><path d="m106.35972 147.46493c-.47405.87368-1.25815 1.02251-2.15663 1.15618-4.656394.69728-7.56681.63803-11.880072.2632-.830955-.073-1.114832-.55397-.824065-1.63159.288009-1.0046.456131-1.64814.879186-2.69545.37207-.81717 1.083141-1.06109 1.842439-.99632 4.062458.21497 8.425322.0841 12.722052-.43132.81993-.12265 1.04593.0992.87781.82268-.24529.96325-.94534 2.47909-1.46072 3.51262" fill="#333"/><path d="m107.52554 143.12274c.005.11437-.01.25079-.0482.41616-.2453.96325-.94534 2.47909-1.46073 3.51262-.47404.87368-1.25815 1.0225-2.15663 1.15617-4.656388.69729-7.566805.63804-11.880064.26321-.213595-.0179-.389985-.0648-.530545-.14056.115755.33486.403765.51263.873675.55397 4.313262.37483 7.223678.43408 11.880074-.2632.89848-.13367 1.68258-.2825 2.15525-1.15618.51676-1.03353 1.21681-2.54937 1.4621-3.51262.11713-.50298.0372-.75929-.29491-.82957" fill="#5c5c5c"/><path d="m59.449915 121.79346s5.980689-2.19522 10.262251-1.54754c4.281564.64906 10.054167 5.44187 11.638912 12.19013-.344508-3.44372-2.265494-11.57139-8.123533-13.53234-5.856664-1.96233-13.77763 2.88975-13.77763 2.88975" fill="#fff"/><g fill="#333"><path d="m64.485269 130.93812c.01101.10473-.05512.1819-.147452.17226-1.81901-.2012-2.728513-.3142-4.548902-.55535-.09371-.0138-.17639-.0978-.184658-.1888-.300413-3.1061-.300413-4.60127 0-7.70736.0083-.091.09095-.17639.184658-.18879 1.820389-.24116 2.729892-.35554 4.547524-.55673.09371-.01.161234.0675.150209.17225-.294902 2.94211-.294902 5.91179-.0013 8.85252"/><path d="m57.896869 130.10579c.0096.0868-.0441.14882-.119893.14056-1.477256-.16399-2.215883-.25494-3.69314-.452-.07579-.01-.143316-.0772-.150207-.15297-.243912-2.5218-.243912-3.73586 0-6.25904.0069-.0744.07441-.14332.150207-.15297 1.477257-.19568 2.215884-.288 3.69314-.45199.07579-.008.129537.0551.121269.14056-.239776 2.38814-.239776 4.79971-.0013 7.18785"/><path d="m52.235886 129.42779c.0069.0689-.03583.11989-.09784.113-1.197516-.13229-1.795584-.20671-2.995856-.36656-.06063-.007-.115755-.0634-.121267-.12402-.198438-2.04501-.198438-3.03031 0-5.07669.0055-.0593.06063-.11576.121267-.12403 1.200272-.15847 1.79834-.23427 2.995856-.36656.06063-.007.106108.0441.09922.11438-.195681 1.93614-.194303 3.89296-.0014 5.83048"/><path d="m47.715921 128.89449c.0055.0565-.03032.0978-.07993.0923-.978407-.10886-1.468988-.1695-2.447395-.29903-.05099-.007-.09509-.0524-.09922-.10198-.162609-1.67156-.162609-2.47495 0-4.14651.0041-.051.04823-.0965.09922-.10198.978407-.13091 1.468988-.19155 2.447395-.29903.04961-.007.08544.0345.07993.0923-.158475 1.58199-.158475 3.18052 0 4.76388"/><path d="m44.013132 128.44938c.0055.0455-.02343.0799-.06477.0744-.795128-.0868-1.193381-.1378-1.989887-.24253-.04134-.005-.07717-.0427-.0813-.0827-.130914-1.35875-.130914-2.01332 0-3.37344.0041-.04.03996-.0758.0813-.0813.796506-.10611 1.193381-.15572 1.989887-.24392.03996-.005.07028.0289.06615.0758-.129535 1.28571-.129535 2.58657-.0014 3.87366"/><path d="m41.025545 128.08282c.0028.0372-.02067.0634-.05374.0606-.644921-.0717-.967382-.11162-1.613682-.19705-.03307-.004-.06201-.0345-.06477-.0675-.106109-1.10106-.106109-1.6316 0-2.73403.0028-.0317.03169-.062.06477-.0662.6463-.0868.968761-.12678 1.613682-.19844.03307-.003.05788.0248.05374.0606-.106109 1.04455-.104731 2.09737 0 3.14192"/><path d="m38.677368 127.83202c.0027.0317-.01653.0551-.0441.0524-.542947-.0606-.81442-.0937-1.357368-.16674-.02756-.003-.05236-.0289-.05512-.0551-.08957-.92742-.08957-1.3739 0-2.29994.0028-.0275.02756-.0524.05512-.0565.542948-.0717.814421-.10611 1.357368-.16537.02756-.003.04823.0193.0441.051-.08819.87781-.08819 1.76389 0 2.64033"/><path d="m36.812882 127.63359c.0028.0262-.01378.0469-.03721.0441-.461643-.051-.691775-.0799-1.153418-.14057-.02343-.004-.0441-.0248-.04548-.0482-.07717-.78686-.07717-1.16582 0-1.95267.0014-.0234.02205-.0455.04548-.0482.461643-.062.691775-.0896 1.153418-.14194.02343-.001.03996.0179.03721.0441-.07441.74551-.07441 1.49793 0 2.24344"/><path d="m35.299796 127.482c.0028.0234-.0124.04-.03169.0386-.398253-.0441-.598068-.0689-.997699-.12264-.02067-.003-.03858-.0207-.03996-.0413-.06615-.68075-.06615-1.00872 0-1.68948.0014-.0193.01929-.0386.03996-.0413.399631-.0524.599446-.0772.997699-.12126.01929-.003.03445.0138.03169.0372-.06477.64492-.06339 1.29535 0 1.94027"/><path d="m33.992038 127.32628c.0014.0193-.01103.0345-.02756.0317-.334863-.0372-.501606-.0579-.837847-.10198-.01653-.003-.03169-.0179-.03307-.0345-.05512-.57188-.05512-.84749 0-1.418.0014-.0179.01653-.0331.03307-.0345.336241-.0455.502984-.0661.837847-.10335.01653-.001.02894.0124.02756.0317-.05512.54157-.05512 1.08727 0 1.62884"/><path d="m32.925436 127.14576c.0027.0152-.0069.0262-.02067.0248-.260449-.0289-.389985-.0455-.650434-.0799-.01378-.001-.0248-.0138-.02618-.0275-.04272-.44373-.04272-.65733 0-1.10243.0014-.0124.0124-.0248.02618-.0275.260449-.0345.389985-.051.650434-.0799.01378-.001.02343.011.02067.0248-.04134.42167-.04134.84611 0 1.26779"/><path d="m32.098613 127.04241c0 .0124-.0069.0207-.01791.0193-.21773-.0234-.326595-.0372-.544325-.0661-.01102-.001-.02205-.011-.02205-.0221-.03583-.37207-.03583-.55122 0-.92329 0-.01.01102-.0207.02205-.0221.21773-.0289.326595-.0427.544325-.0661.01102-.001.01791.008.01791.0207-.03583.3514-.03583.70694 0 1.05972"/><path d="m31.424753 126.94594c.0014.01-.0055.0165-.01378.0165-.179145-.0193-.26734-.0317-.446484-.0551-.0083-.001-.01654-.008-.01791-.0179-.02894-.30316-.02894-.45061 0-.75378.0014-.01.0096-.0179.01791-.0193.179144-.0234.267339-.0345.446484-.0538.0083-.001.01516.006.01378.0165-.02894.288-.02894.57877 0 .86678"/><path d="m30.868025 126.87153c0 .008-.0055.0152-.0124.0138-.14745-.0165-.221864-.0248-.369314-.0455-.0083-.001-.01378-.007-.01516-.0152-.0248-.25219-.0248-.37345 0-.62563.0014-.007.0069-.0138.01516-.0152.14745-.0193.221864-.0289.369314-.0455.0069 0 .0124.005.0124.0138-.0248.23978-.02343.48093 0 .71933"/></g><path d="m64.569327 134.68363c-.815797-.16537-1.639866-.33349-2.472197-.50299-1.663296-.34037-3.355526-.67523-5.040863-1.05144-1.686722-.36656-3.373441-.73311-5.033976-1.09278-1.657781-.37483-3.289378-.74277-4.867232-1.09968-1.577854-.36242-3.103342-.71244-4.548904-1.04593-1.445562-.33624-2.811198-.65457-4.072103-.94809-4.316016-1.03077-7.397309-1.76527-8.193816-1.95543v.0551c.813043.21635 3.865398 1.02388 8.130426 2.15249 1.254015.32384 2.612761.67662 4.050054 1.04869 1.437294.36793 2.954514.75516 4.522722 1.15617 1.570964.3955 3.192915.8034 4.842426 1.21819 1.652269.40238 3.330719.81028 5.009168 1.21818 1.677075.41755 3.365172.79375 5.022954 1.17547.829577.19017 1.652264.37896 2.465308.56499.598069.13781 1.192.2577 1.781804.37759v-.97152c-.52779-.0937-1.059714-.18879-1.595771-.29903" fill="#ffcc3a"/><path d="m37.070575 125.14898c.07028-.45199.198438-.69315.318327-.82269-.0565.0124-.112999.0248-.169499.0372-.10473.1571-.199815.39825-.257692.76757-.141939.91226-.05099 3.98391.395496 5.30406.04272.0179.08406.0345.125402.0524-.42168-1.15204-.588423-4.20026-.412034-5.33852" fill="#333"/><path d="m74.387851 145.47229s-4.256762-1.9389-6.480913-5.77811c-.478179-.50023-6.751011-1.97887-7.109302-2.03537-.359666-.0565-1.127233.9536-1.357365 1.28295-.230135.32798-1.218187.13092-1.522733.008 1.756998.71245 16.470313 6.52226 16.470313 6.52226" fill="#333"/><path d="m44.673212 133.45855s-1.725304-.8971-2.627919-2.45429c-.192925-.20256-2.736784-.80339-2.882856-.82544-.144694-.0234-.45613.38723-.549837.51952-.09371.13367-.493337.0537-.617361.004.712446.28939 6.677973 2.75608 6.677973 2.75608" fill="#333"/><path d="m36.808748 130.20914s-.85714-.44511-1.305002-1.21956c-.09646-.1006-1.358746-.39826-1.431782-.40928-.07166-.011-.225998.19154-.272851.25907-.04685.0648-.245291.0262-.307303.001.354156.14332 3.316938 1.36839 3.316938 1.36839" fill="#333"/><path d="m31.722409 128.12692s-.323839-.14745-.472667-.40376c-.03169-.0331-.449241-.1323-.472667-.13505-.0248-.004-.07579.0634-.09095.0854-.01516.0221-.0813.008-.101975 0 .117134.0469 1.13826.45337 1.13826.45337" fill="#333"/><path d="m98.31473 142.4723c0 .5085-.372073.92053-.830958.92053-.460267 0-.832334-.41203-.832334-.92053s.372067-.92053.832334-.92053c.458885 0 .830958.41203.830958.92053" fill="#ffeec5"/><path d="m97.483772 141.55177c-.0441 0-.08406.007-.125402.0138.399629.0675.706935.44649.706935.90675s-.307306.83922-.706935.90675c.04134.007.0813.0138.125402.0138.458885 0 .830958-.41203.830958-.92053 0-.50849-.372073-.92053-.830958-.92053" fill="#7d6b4a"/><path d="m97.266041 147.7805c0 .55949-.525031 1.01286-1.174086 1.01286-.64906 0-1.174091-.45337-1.174091-1.01286 0-.56086.525031-1.01423 1.174091-1.01423.649055 0 1.174086.45337 1.174086 1.01423" fill="#595959"/><path d="m97.266041 147.7805c0 .55949-.409276 1.01286-.916392 1.01286-.505743 0-.916398-.45337-.916398-1.01286 0-.56086.410655-1.01423.916398-1.01423.507116 0 .916392.45337.916392 1.01423" fill="#fff"/><path d="m96.349649 146.84206c-.463021 0-.840608.4203-.840608.93844 0 .51677.377587.93707.840608.93707.464396 0 .840602-.4203.840602-.93707 0-.51814-.376206-.93844-.840602-.93844m0 2.02709c-.547082 0-.992188-.48782-.992188-1.08865 0-.60082.445106-1.09002.992188-1.09002.547079 0 .993563.4892.993563 1.09002 0 .60083-.446484 1.08865-.993563 1.08865" fill="#e8e8e8"/><path d="m96.349649 146.76627c-.04686 0-.09233.008-.137806.0152.440971.0744.779971.49058.779971.99907 0 .50712-.339.92467-.779971.9977.04548.008.09095.0152.137806.0152.507116 0 .916392-.45337.916392-1.01285 0-.56087-.409276-1.01424-.916392-1.01424" fill="#9c9c9c"/><path d="m106.01797 147.13007c0 .5085-.47681.91915-1.06661.91915-.58842 0-1.06522-.41065-1.06522-.91915 0-.50849.4768-.92053 1.06522-.92053.5898 0 1.06661.41204 1.06661.92053" fill="#595959"/><path d="m106.01797 147.13007c0 .5085-.37208.91915-.83234.91915-.45889 0-.83233-.41065-.83233-.91915 0-.50849.37344-.92053.83233-.92053.46026 0 .83234.41204.83234.92053" fill="#fff"/><path d="m105.18563 146.27844c-.4203 0-.76343.38172-.76343.85163s.34313.85163.76343.85163c.42168 0 .76343-.38172.76343-.85163s-.34175-.85163-.76343-.85163m0 1.84106c-.49609 0-.90124-.44373-.90124-.98943s.40515-.98943.90124-.98943c.49747 0 .90124.44373.90124.98943s-.40377.98943-.90124.98943" fill="#e8e8e8"/><path d="m105.18563 146.20954c-.0427 0-.0841.007-.12402.0138.39963.0675.70693.44511.70693.90675 0 .46026-.3073.83923-.70693.90675.04.006.0813.0138.12402.0138.46026 0 .83234-.41204.83234-.92053 0-.5085-.37208-.92053-.83234-.92053" fill="#9c9c9c"/><path d="m107.97478 141.88112c0 .5085-.33349.92053-.74414.92053-.41203 0-.74552-.41203-.74552-.92053 0-.50849.33349-.92053.74552-.92053.41065 0 .74414.41204.74414.92053" fill="#ffeec5"/><path d="m107.23064 140.96059c-.0386 0-.0758.007-.113.0138.35967.0675.6339.44511.6339.90675 0 .46165-.27423.83923-.6339.90537.0372.008.0744.0152.113.0152.41065 0 .74552-.41203.74552-.92052 0-.5085-.33487-.92054-.74552-.92054" fill="#7d6b4a"/><path d="m106.33353 139.90639c0 .13918-.11437.26045-.25769.27148l-6.621473.51538c-.141941.011-.257693-.0923-.257693-.23013-.0013-.13918.114377-.26045.256315-.27147l6.621471-.51539c.14332-.011.25907.0923.25907.23013" fill="#333"/><path d="m106.33629 140.75526c0 .13781-.11575.25907-.25769.2701l-6.621478.51539c-.141936.0124-.25907-.0909-.25907-.23014 0-.1378.115756-.26044.257691-.27009l6.621477-.51677c.14194-.011.25769.0923.25907.23151" fill="#333"/><path d="m106.33905 141.60276c0 .13918-.11576.26045-.2577.27147l-6.621471.51539c-.143317.011-.25907-.0923-.25907-.23013 0-.13919.114377-.26045.257694-.27148l6.621477-.51538c.14193-.011.25769.0923.25907.23013" fill="#333"/><path d="m106.34042 142.45163c0 .1378-.11437.25907-.25769.2701l-6.621473.51538c-.141936.0124-.257693-.0909-.257693-.23013-.0013-.1378.114376-.25907.257693-.2701l6.620093-.51676c.14332-.011.25907.0923.25907.23151" fill="#333"/><path d="m86.332688 149.03452c-3.604948-1.55443-7.207142-4.51446-8.998593-7.66327l-5.142836-1.15204s7.22643 6.96461 14.141429 8.81531" fill="#fff"/></g></svg>