<svg xmlns:xlink="http://www.w3.org/1999/xlink" height="804" xmlns="http://www.w3.org/2000/svg" xmlns:ev="http://www.w3.org/2001/xml-events" viewBox="0 0 1132 804" width="1132"><style type="text/css"><![CDATA[
.st1 {fill:#000000;font-family:Arial;font-size:10pt}
]]></style><defs/><g transform="translate(5,5)" id="page1"><rect height="794" fill="#ffffff" x="0" y="0" width="1123" stroke="#808080"/><g transform="translate(561.26,388)" id="shape1"><path fill="none" d="M0,0L-147.3,94" stroke="#000000"/><path fill="none" d="M-133.9,92.6L-147.3,94L-140.4,82.5" stroke-linejoin="round" stroke-width="1" stroke="#000000" stroke-linecap="round"/></g><g transform="translate(575.26,356)" id="shape2"><path fill="none" d="M0,0L152.7,185.2" stroke="#000000"/><path fill="none" d="M149.7,172.2L152.7,185.2L140.5,179.8" stroke-linejoin="round" stroke-width="1" stroke="#000000" stroke-linecap="round"/></g><g transform="translate(242,170)"><path fill="none" d="M0,0L28,0L0,0z" transform="translate(-0.04,23.04)" id="shape3" stroke="#000000"/><path fill="none" d="M14,0L14,29.9L14,0zM0,52.1L14,30.2L0,52.1z" transform="translate(0,11.83)" id="shape4" stroke="#000000"/><path fill="none" d="M0,0L14,22.2L0,0z" transform="translate(14,41.73)" id="shape5" stroke="#000000"/><path fill="#ffffff" d="M0,7.2C0,3.2,3.1,0,6.8,0C10.6,0,13.6,3.2,13.6,7.2C13.6,11.1,10.6,14.3,6.8,14.3C3.1,14.3,0,11.1,0,7.2z" transform="translate(7.23,-0.05)" id="shape6" stroke="#000000"/><text class="st1"><tspan x="-0.8" y="80">Гость</tspan></text></g><g transform="translate(704,96)"><path fill="none" d="M0,0L28,0L0,0z" transform="translate(-0.04,23.04)" id="shape7" stroke="#000000"/><path fill="none" d="M14,0L14,29.9L14,0zM0,52.1L14,30.2L0,52.1z" transform="translate(0,11.83)" id="shape8" stroke="#000000"/><path fill="none" d="M0,0L14,22.2L0,0z" transform="translate(14,41.73)" id="shape9" stroke="#000000"/><path fill="#ffffff" d="M0,7.2C0,3.2,3.1,0,6.8,0C10.6,0,13.6,3.2,13.6,7.2C13.6,11.1,10.6,14.3,6.8,14.3C3.1,14.3,0,11.1,0,7.2z" transform="translate(7.23,-0.05)" id="shape10" stroke="#000000"/><text class="st1"><tspan x="-56" y="80">Пользователь системы</tspan></text></g><g transform="translate(547.26,324)"><path fill="none" d="M0,0L28,0L0,0z" transform="translate(-0.04,23.04)" id="shape11" stroke="#000000"/><path fill="none" d="M14,0L14,29.9L14,0zM0,52.1L14,30.2L0,52.1z" transform="translate(0,11.83)" id="shape12" stroke="#000000"/><path fill="none" d="M0,0L14,22.2L0,0z" transform="translate(14,41.73)" id="shape13" stroke="#000000"/><path fill="#ffffff" d="M0,7.2C0,3.2,3.1,0,6.8,0C10.6,0,13.6,3.2,13.6,7.2C13.6,11.1,10.6,14.3,6.8,14.3C3.1,14.3,0,11.1,0,7.2z" transform="translate(7.23,-0.05)" id="shape14" stroke="#000000"/><text class="st1"><tspan x="-31.6" y="80">Администратор</tspan></text></g><g transform="translate(217,283.49)" id="shape15"><path fill="#ffffff" d="M0,36.3C0,16.2,24.9,0,55.6,0C86.2,0,111.1,16.2,111.1,36.3C111,56.3,86.2,72.4,55.6,72.4C24.9,72.4,.1,56.3,0,36.3z" stroke="#000000"/><text class="st1"><tspan x="15.3" y="24.3">Просмотреть </tspan><tspan x="7.3" y="40.3">список поездов </tspan><tspan x="20.9" y="56.3">по станции</tspan></text></g><g transform="translate(394.5,170)" id="shape16"><path fill="#ffffff" d="M0,51.6C-0,23.1,36,-0,80.5,-0C125,-0,161,23.1,161,51.6C161,80.1,125,103.2,80.5,103.2C36,103.2,0,80.1,0,51.6z" stroke="#000000"/><text class="st1"><tspan x="17.6" y="31.6">Просмотреть список </tspan><tspan x="36.8" y="47.6">рейсов между </tspan><tspan x="38.4" y="63.6">станциями на </tspan><tspan x="19.2" y="79.6">определённую дату</tspan></text></g><g transform="translate(256,234)" id="shape17"><path fill="none" d="M0,0L16.6,49.5" stroke="#000000"/><path fill="none" d="M18.4,36.2L16.6,49.5L7.1,40" stroke-linejoin="round" stroke-width="1" stroke="#000000" stroke-linecap="round"/></g><g transform="translate(270,202)" id="shape18"><path fill="none" d="M0,0L124.5,19.6" stroke="#000000"/><path fill="none" d="M113.6,11.8L124.5,19.6L111.7,23.7" stroke-linejoin="round" stroke-width="1" stroke="#000000" stroke-linecap="round"/></g><g transform="translate(286,403)"><path fill="#ffffff" d="M16,16M16,16zM16,16zM16,16L4,12.1L16,16z" id="shape19" stroke="#000000"/><path fill="#ffffff" d="M0,16C-0,7.1,7.2,-0,16,-0C24.8,-0,32,7.1,32,16C32,24.8,24.8,32,16,32C7.2,32,0,24.8,0,16z" transform="translate(-0.01,-0.03)" id="shape20" stroke="#000000"/><text class="st1"><tspan x="-24.3" y="44.7">Виртуальное </tspan><tspan x="-1.9" y="60.7">табло</tspan></text></g><g transform="translate(381,324)"><path fill="none" d="M16,16M16,16zM16,16zM16,16z" id="shape21" stroke="#000000"/><path fill="#ffffff" d="M0,16C-0,7.1,7.2,-0,16,-0C24.8,-0,32,7.1,32,16C32,24.8,24.8,32,16,32C7.2,32,0,24.8,0,16z" transform="translate(-0.01,-0.03)" id="shape22" stroke="#000000"/><text class="st1"><tspan x="-20.3" y="44.7">Расписание</tspan></text></g><g transform="translate(424.69,260.3)" id="shape23"><path fill="none" d="M0,0L-27.7,63.7" stroke="#000000"/><path fill="none" d="M-17.4,55.1L-27.7,63.7L-28.4,50.3" stroke-linejoin="round" stroke-width="1" stroke="#000000" stroke-linecap="round"/></g><g transform="translate(272.55,356)" id="shape24"><path fill="none" d="M0,0L29.4,47" stroke="#000000"/><path fill="none" d="M28.2,33.6L29.4,47L18,40" stroke-linejoin="round" stroke-width="1" stroke="#000000" stroke-linecap="round"/></g><g transform="translate(704,128)" id="shape25"><path fill="none" d="M0,0L-178.7,54.9" stroke="#000000"/><path fill="none" d="M-165.5,57.1L-178.7,54.9L-169,45.7" stroke-linejoin="round" stroke-width="1" stroke="#000000" stroke-linecap="round"/></g><g transform="translate(642,217)" id="shape26"><path fill="#ffffff" d="M0,33C-0,14.8,25.5,0,57,0C88.5,0,114,14.8,114,33C114,51.2,88.5,66,57,66C25.5,66,0,51.2,0,33z" stroke="#000000"/><text class="st1"><tspan x="16" y="37">Купить билет</tspan></text></g><g transform="translate(683,340)"><path fill="none" d="M16,16M16,16zM16,16zM16,16z" id="shape27" stroke="#000000"/><path fill="#ffffff" d="M0,16C-0,7.1,7.2,-0,16,-0C24.8,-0,32,7.1,32,16C32,24.8,24.8,32,16,32C7.2,32,0,24.8,0,16z" transform="translate(-0.01,-0.03)" id="shape28" stroke="#000000"/><text class="st1"><tspan x="-33.1" y="44.7">Форма продажи </tspan><tspan x="-9.1" y="60.7">билетов</tspan></text></g><g transform="translate(718,160)" id="shape29"><path fill="none" d="M0,0L-19,57" stroke="#000000"/><path fill="none" d="M-9.5,47.5L-19,57L-20.9,43.7" stroke-linejoin="round" stroke-width="1" stroke="#000000" stroke-linecap="round"/></g><g transform="translate(718,160)" id="shape30"><path fill="none" d="M0,0L117.4,57" stroke="#000000"/><path fill="none" d="M109.3,46.4L117.4,57L104,57.2" stroke-linejoin="round" stroke-width="1" stroke="#000000" stroke-linecap="round"/></g><g transform="translate(699,283)" id="shape31"><path fill="none" d="M0,0L0,57" stroke="#000000"/><path fill="none" d="M6,45L0,57L-6,45" stroke-linejoin="round" stroke-width="1" stroke="#000000" stroke-linecap="round"/></g><g transform="translate(732,128)" id="shape32"><path fill="none" d="M0,0L223.5,122" stroke="#000000"/><path fill="none" d="M215.8,111L223.5,122L210.1,121.6" stroke-linejoin="round" stroke-width="1" stroke="#000000" stroke-linecap="round"/></g><g transform="translate(547.26,356)" id="shape33"><path fill="none" d="M0,0L-253.3,159" stroke="#000000"/><path fill="none" d="M-239.9,157.7L-253.3,159L-246.3,147.6" stroke-linejoin="round" stroke-width="1" stroke="#000000" stroke-linecap="round"/></g><g transform="translate(459,608)"><path fill="none" d="M16,16M16,16zM16,16zM16,16z" id="shape34" stroke="#000000"/><path fill="#ffffff" d="M0,16C-0,7.1,7.2,-0,16,-0C24.8,-0,32,7.1,32,16C32,24.8,24.8,32,16,32C7.2,32,0,24.8,0,16z" transform="translate(-0.01,-0.03)" id="shape35" stroke="#000000"/><text class="st1"><tspan x="-6.7" y="44.7">Панель </tspan><tspan x="-34.7" y="60.7">администратора</tspan></text></g><g transform="translate(894,340)"><path fill="none" d="M16,16M16,16zM16,16zM16,16z" id="shape36" stroke="#000000"/><path fill="#ffffff" d="M0,16C-0,7.1,7.2,-0,16,-0C24.8,-0,32,7.1,32,16C32,24.8,24.8,32,16,32C7.2,32,0,24.8,0,16z" transform="translate(-0.01,-0.03)" id="shape37" stroke="#000000"/><text class="st1"><tspan x="-33.1" y="44.7">Личный кабинет</tspan></text></g><g transform="translate(728,508.2)" id="shape38"><path fill="#ffffff" d="M0,33C-0,14.8,25.5,0,57,0C88.5,0,114,14.8,114,33C114,51.2,88.5,66,57,66C25.5,66,0,51.2,0,33z" stroke="#000000"/><text class="st1"><tspan x="27.2" y="29">Изменить </tspan><tspan x="12.8" y="45">список рейсов</tspan></text></g><g transform="translate(955.48,217)" id="shape39"><path fill="#ffffff" d="M0,33C-0,14.8,25.5,0,57,0C88.5,0,114,14.8,114,33C114,51.2,88.5,66,57,66C25.5,66,0,51.2,0,33z" stroke="#000000"/><text class="st1"><tspan x="16.8" y="29">Просмотреть </tspan><tspan x="9.6" y="45">список билетов</tspan></text></g><g transform="translate(778.44,217)" id="shape40"><path fill="#ffffff" d="M0,33C-0,14.8,25.5,0,57,0C88.5,0,114,14.8,114,33C114,51.2,88.5,66,57,66C25.5,66,0,51.2,0,33z" stroke="#000000"/><text class="st1"><tspan x="12" y="37">Вернуть билет</tspan></text></g><g transform="translate(728,541.2)" id="shape41"><path fill="none" d="M0,0L-237,82.8" stroke-dasharray="2,5" stroke="#000000"/><path fill="none" d="M-223.7,84.5L-237,82.8L-227.7,73.2" stroke-linejoin="round" stroke-width="1" stroke="#000000" stroke-linecap="round"/></g><g transform="translate(835.44,283)" id="shape42"><path fill="none" d="M0,0L74.6,57" stroke-dasharray="2,5" stroke="#000000"/><path fill="none" d="M68.7,44.9L74.6,57L61.4,54.5" stroke-linejoin="round" stroke-width="1" stroke="#000000" stroke-linecap="round"/></g><g transform="translate(976.86,274.75)" id="shape43"><path fill="none" d="M0,0L-66.9,65.3" stroke-dasharray="2,5" stroke="#000000"/><path fill="none" d="M-54.1,61.2L-66.9,65.3L-62.5,52.6" stroke-linejoin="round" stroke-width="1" stroke="#000000" stroke-linecap="round"/></g><g transform="translate(547.26,499.8)" id="shape44"><path fill="#ffffff" d="M0,37.2C-0,16.7,25.5,0,57,0C88.5,0,114,16.7,114,37.2C114,57.7,88.5,74.4,57,74.4C25.5,74.4,0,57.7,0,37.2z" stroke="#000000"/><text class="st1"><tspan x="7.2" y="25.2">Изменить права </tspan><tspan x="34.4" y="41.2">любого </tspan><tspan x="14.4" y="57.2">пользователя</tspan></text></g><g transform="translate(357,482)" id="shape45"><path fill="#ffffff" d="M0,33C-0,14.8,25.5,0,57,0C88.5,0,114,14.8,114,33C114,51.2,88.5,66,57,66C25.5,66,0,51.2,0,33z" stroke="#000000"/><text class="st1"><tspan x="10.4" y="29">Изменить цену </tspan><tspan x="11.2" y="45">мест в вагонах</tspan></text></g><g transform="translate(180,482)" id="shape46"><path fill="#ffffff" d="M0,33C-0,14.8,25.5,0,57,0C88.5,0,114,14.8,114,33C114,51.2,88.5,66,57,66C25.5,66,0,51.2,0,33z" stroke="#000000"/><text class="st1"><tspan x="27.2" y="29">Изменить </tspan><tspan x="8.8" y="45">список станций</tspan></text></g><g transform="translate(561.26,388)" id="shape47"><path fill="none" d="M0,0L43,111.8" stroke="#000000"/><path fill="none" d="M44.3,98.5L43,111.8L33.1,102.8" stroke-linejoin="round" stroke-width="1" stroke="#000000" stroke-linecap="round"/></g><g transform="translate(557.95,557.83)" id="shape48"><path fill="none" d="M0,0L-82.9,50.2" stroke-dasharray="2,5" stroke="#000000"/><path fill="none" d="M-69.6,49.1L-82.9,50.2L-75.8,38.8" stroke-linejoin="round" stroke-width="1" stroke="#000000" stroke-linecap="round"/></g><g transform="translate(414,548)" id="shape49"><path fill="none" d="M0,0L61,60" stroke-dasharray="2,5" stroke="#000000"/><path fill="none" d="M56.7,47.3L61,60L48.2,55.9" stroke-linejoin="round" stroke-width="1" stroke="#000000" stroke-linecap="round"/></g><g transform="translate(294,515)" id="shape50"><path fill="none" d="M0,0L165,109" stroke-dasharray="2,5" stroke="#000000"/><path fill="none" d="M158.3,97.4L165,109L151.7,107.4" stroke-linejoin="round" stroke-width="1" stroke="#000000" stroke-linecap="round"/></g></g></svg>