<svg xmlns:xlink="http://www.w3.org/1999/xlink" height="804" xmlns="http://www.w3.org/2000/svg" xmlns:ev="http://www.w3.org/2001/xml-events" viewBox="0 0 1133 804" width="1133"><style type="text/css"><![CDATA[
.st1 {fill:#000000;font-family:Arial;font-size:10pt}
.st2 {fill:#000000;font-family:Arial;font-size:11pt}
]]></style><defs><linearGradient x1="0%" x2="0%" id="lg1" y1="0%" y2="100%"><stop offset="0" stop-color="#edf0f7"/><stop offset="1" stop-color="#a6bed0"/></linearGradient></defs><g transform="translate(5,5)" id="page1"><rect height="794" fill="#ffffff" x="0" y="0" width="1123" stroke="#808080"/><path fill="url(#lg1)" d="M0,13C0,5.8,5.8,0,13,0C20.2,0,26,5.8,26,13C26,20.2,20.2,26,13,26C5.8,26,0,20.2,0,13z" transform="translate(304,59.8)" id="shape1" stroke="#000000"/><g transform="translate(260,119)" id="shape2"><path fill="none" d="M100.3,58.4C107.9,58.4,114,52.3,114,44.7L114,13.7C114,6.1,107.9,0,100.3,0L13.7,0C6.1,0,0,6.1,0,13.7L0,44.7C0,52.3,6.1,58.4,13.7,58.4L100.3,58.4z" stroke="#000000"/><text class="st1"><tspan x="16" y="25.2">Отображение </tspan><tspan x="16.8" y="41.2">форму входа</tspan></text></g><g transform="translate(260,227.6)" id="shape3"><path fill="none" d="M100.3,74.4C107.9,74.4,114,68.3,114,60.7L114,13.7C114,6.1,107.9,0,100.3,0L13.7,0C6.1,0,0,6.1,0,13.7L0,60.7C0,68.3,6.1,74.4,13.7,74.4L100.3,74.4z" stroke="#000000"/><text class="st1"><tspan x="25.6" y="25.2">Ожидание </tspan><tspan x="9.6" y="41.2">нажатия кнопки </tspan><tspan x="33.6" y="57.2">"Войти"</tspan></text></g><g transform="translate(317,85.8)" id="shape4"><path fill="none" d="M0,0L0,33.2" stroke="#000000"/><path fill="none" d="M6,21.2L0,33.2L-6,21.2" stroke-linejoin="round" stroke-width="1" stroke="#000000" stroke-linecap="round"/></g><g transform="translate(317,177.4)" id="shape5"><path fill="none" d="M0,0L0,50.2" stroke="#000000"/><path fill="none" d="M6,38.2L0,50.2L-6,38.2" stroke-linejoin="round" stroke-width="1" stroke="#000000" stroke-linecap="round"/></g><g transform="translate(487,161.9)" id="shape6"><path fill="none" d="M100.3,74.4C107.9,74.4,114,68.3,114,60.7L114,13.7C114,6.1,107.9,0,100.3,0L13.7,0C6.1,0,0,6.1,0,13.7L0,60.7C0,68.3,6.1,74.4,13.7,74.4L100.3,74.4z" stroke="#000000"/><text class="st1"><tspan x="12.8" y="25.2">Вывод "Такого </tspan><tspan x="14.4" y="41.2">пользователя </tspan><tspan x="44.8" y="57.2">нет"</tspan></text></g><g transform="translate(374,264.8)" id="shape7"><path fill="none" d="M0,0L163,0C166.9,0,170,-3.1,170,-7L170,-28.5" stroke="#000000"/><path fill="none" d="M164,-16.5L170,-28.5L176,-16.5" stroke-linejoin="round" stroke-width="1" stroke="#000000" stroke-linecap="round"/></g><g transform="translate(515.5,161.9)" id="shape8"><path fill="none" d="M0,0L0,-7.7C0,-11,-2.7,-13.7,-6,-13.7L-141.5,-13.7" stroke="#000000"/><path fill="none" d="M-129.5,-7.7L-141.5,-13.7L-129.5,-19.7" stroke-linejoin="round" stroke-width="1" stroke="#000000" stroke-linecap="round"/></g><g transform="translate(76,171.6)" id="shape9"><path fill="none" d="M100.3,74.4C107.9,74.4,114,68.3,114,60.7L114,13.7C114,6.1,107.9,0,100.3,0L13.7,0C6.1,0,0,6.1,0,13.7L0,60.7C0,68.3,6.1,74.4,13.7,74.4L100.3,74.4z" stroke="#000000"/><text class="st1"><tspan x="36.8" y="25.2">Вывод </tspan><tspan x="24" y="41.2">"Неверный </tspan><tspan x="32.8" y="57.2">пароль"</tspan></text></g><g transform="translate(260,264.8)" id="shape10"><path fill="none" d="M0,0L-120,0C-123.9,0,-127,-3.1,-127,-7L-127,-18.8" stroke="#000000"/><path fill="none" d="M-133,-6.8L-127,-18.8L-121,-6.8" stroke-linejoin="round" stroke-width="1" stroke="#000000" stroke-linecap="round"/></g><g transform="translate(133,171.6)" id="shape11"><path fill="none" d="M0,0L0,-16.4C0,-20.3,3.1,-23.4,7,-23.4L127,-23.4" stroke="#000000"/><path fill="none" d="M115,-29.4L127,-23.4L115,-17.4" stroke-linejoin="round" stroke-width="1" stroke="#000000" stroke-linecap="round"/></g><g transform="translate(378,283)" id="shape12"><text class="st2"><tspan x="6.4" y="-2">Если имя пользователя </tspan><tspan x="59.2" y="15.6">неверно</tspan></text></g><g transform="translate(102,283)" id="shape13"><text class="st2"><tspan x="13.6" y="6.8">Если пароль неверен</tspan></text></g><g transform="translate(260,410.05)" id="shape14"><path fill="none" d="M100.3,90.4C107.9,90.4,114,84.3,114,76.7L114,13.7C114,6.1,107.9,0,100.3,0L13.7,0C6.1,0,0,6.1,0,13.7L0,76.7C0,84.3,6.1,90.4,13.7,90.4L100.3,90.4z" stroke="#000000"/><text class="st1"><tspan x="28" y="25.2">Отправка </tspan><tspan x="32.8" y="41.2">клиенту </tspan><tspan x="18.4" y="57.2">сессионного </tspan><tspan x="37.6" y="73.2">сookie</tspan></text></g><g transform="translate(76,426.05)" id="shape15"><path fill="none" d="M100.3,74.4C107.9,74.4,114,68.3,114,60.7L114,13.7C114,6.1,107.9,0,100.3,0L13.7,0C6.1,0,0,6.1,0,13.7L0,60.7C0,68.3,6.1,74.4,13.7,74.4L100.3,74.4z" stroke="#000000"/><text class="st1"><tspan x="28" y="25.2">Отправка </tspan><tspan x="11.2" y="41.2">клиенту сookie </tspan><tspan x="9.6" y="57.2">с полем expires</tspan></text></g><g transform="translate(317,302)" id="shape16"><path fill="none" d="M0,0L0,28.5C0,32.4,-3.1,35.5,-7,35.5L-177,35.5C-180.9,35.5,-184,38.7,-184,42.5L-184,124" stroke="#000000"/><path fill="none" d="M-178,112L-184,124L-190,112" stroke-linejoin="round" stroke-width="1" stroke="#000000" stroke-linecap="round"/></g><g transform="translate(317,302)" id="shape17"><path fill="none" d="M0,0L0,108" stroke="#000000"/><path fill="none" d="M6,96L0,108L-6,96" stroke-linejoin="round" stroke-width="1" stroke="#000000" stroke-linecap="round"/></g><g transform="translate(121,359)" id="shape18"><text class="st2"><tspan x="25.6" y="-10.8">Если установлена </tspan><tspan x="20" y="6.8">галочка "Запомнить </tspan><tspan x="68" y="24.4">меня"</tspan></text></g><g transform="translate(321,359)" id="shape19"><text class="st2"><tspan x="15.2" y="-10.8">Если не установлена </tspan><tspan x="20" y="6.8">галочка "Запомнить </tspan><tspan x="68" y="24.4">меня"</tspan></text></g><g transform="translate(717,275.9)" id="shape20"><path fill="none" d="M100.3,58.4C107.9,58.4,114,52.3,114,44.7L114,13.7C114,6.1,107.9,0,100.3,0L13.7,0C6.1,0,0,6.1,0,13.7L0,44.7C0,52.3,6.1,58.4,13.7,58.4L100.3,58.4z" stroke="#000000"/><text class="st1"><tspan x="20.8" y="25.2">Отобразить </tspan><tspan x="8" y="41.2">личный кабинет</tspan></text></g><g transform="translate(717,410.05)" id="shape21"><path fill="none" d="M100.3,90.4C107.9,90.4,114,84.3,114,76.7L114,13.7C114,6.1,107.9,0,100.3,0L13.7,0C6.1,0,0,6.1,0,13.7L0,76.7C0,84.3,6.1,90.4,13.7,90.4L100.3,90.4z" stroke="#000000"/><text class="st1"><tspan x="20.8" y="25.2">Отобразить </tspan><tspan x="35.2" y="41.2">панель </tspan><tspan x="9.6" y="57.2">администратор</tspan><tspan x="53.6" y="73.2">а</tspan></text></g><g transform="translate(831,305.1)" id="shape22"><path fill="none" d="M0,0L25,0C28.9,0,32,-3.1,32,-7L32,-166.1C32,-170,28.9,-173.1,25,-173.1L-44,-173.1" stroke="#000000"/><path fill="none" d="M-32,-167.1L-44,-173.1L-32,-179.1" stroke-linejoin="round" stroke-width="1" stroke="#000000" stroke-linecap="round"/></g><g transform="translate(831,455.25)" id="shape23"><path fill="none" d="M0,0L25,0C28.9,0,32,-3.1,32,-7L32,-316.3C32,-320.1,28.9,-323.3,25,-323.3L-44,-323.3" stroke="#000000"/><path fill="none" d="M-32,-317.3L-44,-323.3L-32,-329.3" stroke-linejoin="round" stroke-width="1" stroke="#000000" stroke-linecap="round"/></g><g transform="translate(374,455.25)" id="shape24"><path fill="none" d="M0,0L148,0C151.9,0,155,-3.1,155,-7L155,-143.2C155,-147,158.1,-150.2,162,-150.2L343,-150.2" stroke="#000000"/><path fill="none" d="M331,-156.2L343,-150.2L331,-144.2" stroke-linejoin="round" stroke-width="1" stroke="#000000" stroke-linecap="round"/></g><g transform="translate(133,500.45)" id="shape25"><path fill="none" d="M0,0L0,25C0,28.9,3.1,32,7,32L389,32C392.9,32,396,28.9,396,25L396,-188.3C396,-192.2,399.1,-195.3,403,-195.3L584,-195.3" stroke="#000000"/><path fill="none" d="M572,-201.3L584,-195.3L572,-189.3" stroke-linejoin="round" stroke-width="1" stroke="#000000" stroke-linecap="round"/></g><g transform="translate(761,119)"><path fill="url(#lg1)" d="M0,13C0,5.8,5.8,0,13,0C20.1,0,25.9,5.8,25.9,13C25.9,20.1,20.1,25.9,13,25.9C5.8,25.9,0,20.1,0,13z" transform="translate(0.28,0.04)" id="shape26" stroke="#000000"/><path fill="url(#lg1)" d="M0,9.8C0,4.4,4.4,0,9.8,0C15.1,0,19.5,4.4,19.5,9.8C19.5,15.1,15.1,19.5,9.8,19.5C4.4,19.5,0,15.1,0,9.8z" transform="translate(3.25,3.25)" id="shape27" stroke="#000000"/></g><g transform="translate(190,463.25)" id="shape28"><path fill="none" d="M0,0L0,96.8C0,100.6,3.1,103.8,7,103.8L493,103.8C496.9,103.8,500,100.6,500,96.8L500,-1C500,-4.9,503.1,-8,507,-8L527,-8" stroke="#000000"/><path fill="none" d="M515,-14L527,-8L515,-2" stroke-linejoin="round" stroke-width="1" stroke="#000000" stroke-linecap="round"/></g><g transform="translate(317,500.45)" id="shape29"><path fill="none" d="M0,0L0,59.6C0,63.4,3.1,66.6,7,66.6L366,66.6C369.9,66.6,373,63.4,373,59.6L373,-38.2C373,-42.1,376.1,-45.2,380,-45.2L400,-45.2" stroke="#000000"/><path fill="none" d="M388,-51.2L400,-45.2L388,-39.2" stroke-linejoin="round" stroke-width="1" stroke="#000000" stroke-linecap="round"/></g><g transform="translate(518,544)" id="shape30"><text class="st2"><tspan x="45.6" y="-2">Если клиент </tspan><tspan x="36" y="15.6">администратор</tspan></text></g><g transform="translate(544,330.3)" id="shape31"><text class="st2"><tspan x="45.6" y="-2">Если клиент </tspan><tspan x="40" y="15.6">пользователь</tspan></text></g></g></svg>