<svg xmlns:xlink="http://www.w3.org/1999/xlink" width="789" xmlns:ev="http://www.w3.org/2001/xml-events" xmlns="http://www.w3.org/2000/svg" height="512" viewBox="0 0 789 512"><style type="text/css"><![CDATA[
.st1 {fill:#000000;font-family:Arial;font-size:12pt}
.st3 {fill:#303030;font-family:Arial;font-size:12pt}
.st2 {text-decoration:underline}
]]></style><defs><linearGradient id="lg1" y1="39" y2="177" x1="280" x2="418" gradientUnits="userSpaceOnUse"><stop offset="0" stop-color="#f9f9f9"/><stop offset="1" stop-color="#ffffff"/></linearGradient><linearGradient id="lg2" y1="-105" y2="85" x1="85" x2="274" gradientUnits="userSpaceOnUse"><stop offset="0" stop-color="#f9f9f9"/><stop offset="1" stop-color="#ffffff"/></linearGradient><linearGradient id="lg3" y1="29" y2="146" x1="203" x2="320" gradientUnits="userSpaceOnUse"><stop offset="0" stop-color="#f9f9f9"/><stop offset="1" stop-color="#ffffff"/></linearGradient><linearGradient id="lg4" y1="-83" y2="63" x1="63" x2="209" gradientUnits="userSpaceOnUse"><stop offset="0" stop-color="#f9f9f9"/><stop offset="1" stop-color="#ffffff"/></linearGradient><linearGradient id="lg5" y1="-17" y2="75" x1="18" x2="110" gradientUnits="userSpaceOnUse"><stop offset="0" stop-color="#ffffff"/><stop offset="1" stop-color="#ffffff"/></linearGradient></defs><g id="page1" transform="translate(5,5)"><rect width="779" stroke="#808080" x="0" y="0" height="502" fill="#ffffff"/><g transform="translate(350.85,156)"><g id="shape1" transform="translate(-0.91,-1.03)"><path d="M0,0L341.4,0L341.4,237.6L0,237.6L0,0z" stroke="#000000" fill="#ffffff"/><text class="st1"><tspan x="126.6" y="19.4">"процессор"</tspan><tspan class="st2" x="89.8" y="38.6">:Сервер ж/д компании</tspan></text></g><path id="shape2" stroke-width="0.25" d="M339.1,236L359.1,216L359.1,-20L339.1,0L339.1,236z" stroke="#5c5c5c" fill="url(#lg1)"/><path id="shape3" stroke-width="0.25" d="M0,0L339.1,0L359.1,-20L20,-20L0,0z" stroke="#5c5c5c" fill="url(#lg2)"/></g><g transform="translate(6.86,204.96)"><path id="shape4" transform="translate(-0.68,-0.85)" stroke="#000000" d="M0,0L253.3,0L253.3,196.5L0,196.5L0,0z" fill="none"/><path id="shape5" stroke-width="0.25" d="M251.6,195.2L271.6,175.2L271.6,-20L251.6,0L251.6,195.2z" stroke="#5c5c5c" fill="url(#lg3)"/><g id="shape6"><path stroke-width="0.25" d="M0,0L251.6,0L271.6,-20L20,-20L0,0z" stroke="#5c5c5c" fill="url(#lg4)"/><text class="st1"><tspan x="82" y="19.2">"процессор"</tspan><tspan x="14.8" y="38.4">Пользовательское устройство</tspan></text></g></g><g transform="translate(52.68,328.82)"><g id="shape7" transform="translate(28.06,0.31)"><path d="M0,0L111.4,0L111.4,55.2L0,55.2L0,0z" stroke="#860607" fill="#ffffff"/><text class="st1"><tspan x="49.9" y="23.7">web-</tspan><tspan x="37.9" y="42.9">браузер</tspan></text></g><path id="shape8" transform="translate(-0.09,9.02)" d="M0,0L49.2,0L49.2,13.8L0,13.8L0,0z" stroke="#860607" fill="#ffffff"/><path id="shape9" transform="translate(-0.09,33.13)" d="M0,0L49.2,0L49.2,13.8L0,13.8L0,0z" stroke="#860607" fill="#ffffff"/></g><g id="shape10" transform="matrix(1,-0,0,1,192.2,356.7)"><path stroke="#000000" d="M0,-0L251.8,-0" stroke-dasharray="6,4" fill="none"/><path stroke-width="1" stroke="#000000" d="M243.8,-4L251.8,-0L243.8,4" stroke-linecap="round" stroke-linejoin="round" fill="none"/></g><g transform="translate(375.23,213)"><g id="shape11" transform="translate(28.06,0.31)"><path d="M0,0L111.4,0L111.4,55.2L0,55.2L0,0z" stroke="#860607" fill="#ffffff"/><text class="st1"><tspan class="st2" x="40.3" y="23.7">railway-</tspan><tspan class="st2" x="33.9" y="42.9">project-rs</tspan></text></g><path id="shape12" transform="translate(-0.09,9.02)" d="M0,0L49.2,0L49.2,13.8L0,13.8L0,0z" stroke="#860607" fill="#ffffff"/><path id="shape13" transform="translate(-0.09,33.13)" d="M0,0L49.2,0L49.2,13.8L0,13.8L0,0z" stroke="#860607" fill="#ffffff"/></g><path id="shape14" transform="translate(459.01,268.46)" stroke="#000000" d="M0,0L1,72.1" fill="none"/><path id="shape15" transform="translate(198,198)" stroke="#000000" d="M0,0L0,-94L322.4,-94L322.4,-52" fill="none"/><path id="shape16" transform="matrix(0.9,0.44,-0.44,0.9,137,128)" stroke="#000000" d="M0,-0L63.5,-0" stroke-dasharray="11,5" fill="none"/><g transform="translate(24,95)"><path id="shape17" stroke="#404040" d="M57.2,28M57.2,28M57.2,28M57.2,28M57.2,28M57.2,28M57.2,28M57.2,28" fill="none"/><g id="shape18"><path d="M0,0L0,56L114.4,56L114.4,16.3L98.4,0L0,0z" fill="#ffffff"/><path stroke="#404040" d="M0,0L0,56L114.4,56L114.4,16.3L98.4,0L0,0zM114.4,16.3L98.4,16.3L98.4,0" fill="none"/><text class="st3"><tspan x="9.8" y="24">Защищенная </tspan><tspan x="13.8" y="43.2">линия связи</tspan></text></g></g><g id="shape19" transform="translate(539,302)"><path stroke-width="0.25" d="M0,0L127,0L127,57L0,57L0,0z" stroke="#000000" fill="url(#lg5)"/><text class="st3"><tspan x="12.5" y="18.4">"база данных"</tspan><tspan class="st2" x="36.5" y="37.6">:railway</tspan></text></g><g transform="translate(444,340.6)"><path id="shape20" stroke="#000000" d="M16,16M16,16zM16,16zM16,16z" fill="none"/><path id="shape21" transform="translate(-0.01,-0.03)" d="M0,16C-0,7.1,7.2,-0,16,-0C24.8,-0,32,7.1,32,16C32,24.8,24.8,32,16,32C7.2,32,0,24.8,0,16z" stroke="#000000" fill="#ffffff"/><text class="st3"><tspan x="-17.9" y="46.3">web-сайт</tspan></text></g><g id="shape22" transform="translate(514.72,240.88)"><path stroke="#000000" d="M0,0L8.3,0L8.3,89.6L24.3,89.6" stroke-dasharray="11,5" fill="none"/><path stroke-width="1" stroke="#000000" d="M19.3,84.6L24.3,89.6L19.3,94.6" stroke-linecap="round" stroke-linejoin="round" fill="none"/></g></g></svg>